<mxfile host="app.diagrams.net" modified="2023-07-12T23:14:34.120Z" agent="Mozilla/5.0 (Windows NT 10.0; Win64; x64) AppleWebKit/537.36 (KHTML, like Gecko) Chrome/114.0.0.0 Safari/537.36 Edg/114.0.1823.79" etag="ul5axjt2XsOd0-EN_0Wm" version="21.6.2" type="github">
  <diagram name="Page-1" id="lF3UblHLmA0cqcG6uqCf">
    <mxGraphModel dx="1594" dy="861" grid="1" gridSize="10" guides="1" tooltips="1" connect="1" arrows="1" fold="1" page="1" pageScale="1" pageWidth="2500" pageHeight="1920" math="0" shadow="0">
      <root>
        <mxCell id="0" />
        <mxCell id="1" parent="0" />
        <mxCell id="w-rCVOtRvk_F5D2muNZO-1" value="" style="rounded=0;whiteSpace=wrap;html=1;" vertex="1" parent="1">
          <mxGeometry x="1090" y="340" width="540" height="190" as="geometry" />
        </mxCell>
        <mxCell id="w-rCVOtRvk_F5D2muNZO-3" value="" style="endArrow=none;html=1;rounded=0;entryX=0.998;entryY=0.205;entryDx=0;entryDy=0;entryPerimeter=0;exitX=0.001;exitY=0.207;exitDx=0;exitDy=0;exitPerimeter=0;" edge="1" parent="1" source="w-rCVOtRvk_F5D2muNZO-1" target="w-rCVOtRvk_F5D2muNZO-1">
          <mxGeometry width="50" height="50" relative="1" as="geometry">
            <mxPoint x="1095" y="381" as="sourcePoint" />
            <mxPoint x="1405" y="380" as="targetPoint" />
          </mxGeometry>
        </mxCell>
        <mxCell id="w-rCVOtRvk_F5D2muNZO-4" value="Interface" style="text;html=1;strokeColor=none;fillColor=none;align=center;verticalAlign=middle;whiteSpace=wrap;rounded=0;" vertex="1" parent="1">
          <mxGeometry x="1330" y="360" width="60" height="20" as="geometry" />
        </mxCell>
        <mxCell id="w-rCVOtRvk_F5D2muNZO-5" value="&amp;lt;&amp;lt;Interface&amp;gt;&amp;gt;" style="text;html=1;strokeColor=none;fillColor=none;align=center;verticalAlign=middle;whiteSpace=wrap;rounded=0;" vertex="1" parent="1">
          <mxGeometry x="1330" y="340" width="60" height="20" as="geometry" />
        </mxCell>
        <mxCell id="w-rCVOtRvk_F5D2muNZO-7" value="" style="rounded=0;whiteSpace=wrap;html=1;" vertex="1" parent="1">
          <mxGeometry x="1275" y="590" width="170" height="160" as="geometry" />
        </mxCell>
        <mxCell id="w-rCVOtRvk_F5D2muNZO-8" value="" style="endArrow=none;html=1;rounded=0;entryX=1.005;entryY=0.138;entryDx=0;entryDy=0;entryPerimeter=0;exitX=0.002;exitY=0.136;exitDx=0;exitDy=0;exitPerimeter=0;" edge="1" parent="1" source="w-rCVOtRvk_F5D2muNZO-7" target="w-rCVOtRvk_F5D2muNZO-7">
          <mxGeometry width="50" height="50" relative="1" as="geometry">
            <mxPoint x="1280" y="610" as="sourcePoint" />
            <mxPoint x="1430" y="610" as="targetPoint" />
          </mxGeometry>
        </mxCell>
        <mxCell id="w-rCVOtRvk_F5D2muNZO-9" value="App" style="text;html=1;strokeColor=none;fillColor=none;align=center;verticalAlign=middle;whiteSpace=wrap;rounded=0;fontSize=14;" vertex="1" parent="1">
          <mxGeometry x="1340" y="590" width="32.5" height="20" as="geometry" />
        </mxCell>
        <mxCell id="w-rCVOtRvk_F5D2muNZO-14" value="" style="endArrow=none;dashed=1;html=1;rounded=0;entryX=0.492;entryY=1.012;entryDx=0;entryDy=0;entryPerimeter=0;" edge="1" parent="1" target="w-rCVOtRvk_F5D2muNZO-1">
          <mxGeometry width="50" height="50" relative="1" as="geometry">
            <mxPoint x="1355" y="590" as="sourcePoint" />
            <mxPoint x="1355" y="550" as="targetPoint" />
          </mxGeometry>
        </mxCell>
        <mxCell id="w-rCVOtRvk_F5D2muNZO-16" value="" style="endArrow=none;html=1;rounded=0;" edge="1" parent="1">
          <mxGeometry width="50" height="50" relative="1" as="geometry">
            <mxPoint x="1346.25" y="540" as="sourcePoint" />
            <mxPoint x="1346.25" y="540" as="targetPoint" />
            <Array as="points">
              <mxPoint x="1356.25" y="530" />
            </Array>
          </mxGeometry>
        </mxCell>
        <mxCell id="w-rCVOtRvk_F5D2muNZO-17" value="" style="endArrow=none;html=1;rounded=0;" edge="1" parent="1">
          <mxGeometry width="50" height="50" relative="1" as="geometry">
            <mxPoint x="1355" y="530" as="sourcePoint" />
            <mxPoint x="1355" y="530" as="targetPoint" />
            <Array as="points">
              <mxPoint x="1365" y="540" />
            </Array>
          </mxGeometry>
        </mxCell>
        <mxCell id="w-rCVOtRvk_F5D2muNZO-18" value="&amp;lt;&amp;lt;Implements&amp;gt;&amp;gt;" style="text;html=1;strokeColor=none;fillColor=none;align=center;verticalAlign=middle;whiteSpace=wrap;rounded=0;" vertex="1" parent="1">
          <mxGeometry x="1385" y="560" width="60" height="20" as="geometry" />
        </mxCell>
        <mxCell id="w-rCVOtRvk_F5D2muNZO-135" style="edgeStyle=orthogonalEdgeStyle;rounded=0;orthogonalLoop=1;jettySize=auto;html=1;exitX=0.5;exitY=0;exitDx=0;exitDy=0;entryX=0;entryY=0.5;entryDx=0;entryDy=0;" edge="1" parent="1" source="w-rCVOtRvk_F5D2muNZO-21" target="w-rCVOtRvk_F5D2muNZO-7">
          <mxGeometry relative="1" as="geometry" />
        </mxCell>
        <mxCell id="w-rCVOtRvk_F5D2muNZO-21" value="" style="rounded=0;whiteSpace=wrap;html=1;" vertex="1" parent="1">
          <mxGeometry x="860" y="810" width="160" height="200" as="geometry" />
        </mxCell>
        <mxCell id="w-rCVOtRvk_F5D2muNZO-22" value="" style="endArrow=none;html=1;rounded=0;entryX=0.998;entryY=0.205;entryDx=0;entryDy=0;entryPerimeter=0;exitX=0.001;exitY=0.207;exitDx=0;exitDy=0;exitPerimeter=0;" edge="1" parent="1">
          <mxGeometry width="50" height="50" relative="1" as="geometry">
            <mxPoint x="860.4800000000001" y="839.9999999999999" as="sourcePoint" />
            <mxPoint x="1019.9999999999999" y="839.5999999999999" as="targetPoint" />
          </mxGeometry>
        </mxCell>
        <mxCell id="w-rCVOtRvk_F5D2muNZO-134" style="edgeStyle=orthogonalEdgeStyle;rounded=0;orthogonalLoop=1;jettySize=auto;html=1;exitX=0.5;exitY=0;exitDx=0;exitDy=0;entryX=0.046;entryY=1.014;entryDx=0;entryDy=0;entryPerimeter=0;" edge="1" parent="1" source="w-rCVOtRvk_F5D2muNZO-24" target="w-rCVOtRvk_F5D2muNZO-7">
          <mxGeometry relative="1" as="geometry" />
        </mxCell>
        <mxCell id="w-rCVOtRvk_F5D2muNZO-24" value="" style="rounded=0;whiteSpace=wrap;html=1;" vertex="1" parent="1">
          <mxGeometry x="1070" y="810" width="160" height="200" as="geometry" />
        </mxCell>
        <mxCell id="w-rCVOtRvk_F5D2muNZO-25" value="" style="endArrow=none;html=1;rounded=0;entryX=0.998;entryY=0.205;entryDx=0;entryDy=0;entryPerimeter=0;exitX=0.001;exitY=0.207;exitDx=0;exitDy=0;exitPerimeter=0;" edge="1" parent="1">
          <mxGeometry width="50" height="50" relative="1" as="geometry">
            <mxPoint x="1070" y="840.0000000000001" as="sourcePoint" />
            <mxPoint x="1229.5199999999998" y="839.6" as="targetPoint" />
          </mxGeometry>
        </mxCell>
        <mxCell id="w-rCVOtRvk_F5D2muNZO-137" style="edgeStyle=orthogonalEdgeStyle;rounded=0;orthogonalLoop=1;jettySize=auto;html=1;exitX=0.5;exitY=0;exitDx=0;exitDy=0;entryX=1;entryY=0.5;entryDx=0;entryDy=0;" edge="1" parent="1" source="w-rCVOtRvk_F5D2muNZO-26" target="w-rCVOtRvk_F5D2muNZO-7">
          <mxGeometry relative="1" as="geometry" />
        </mxCell>
        <mxCell id="w-rCVOtRvk_F5D2muNZO-26" value="" style="rounded=0;whiteSpace=wrap;html=1;" vertex="1" parent="1">
          <mxGeometry x="1720" y="810" width="160" height="200" as="geometry" />
        </mxCell>
        <mxCell id="w-rCVOtRvk_F5D2muNZO-27" value="" style="endArrow=none;html=1;rounded=0;entryX=0.998;entryY=0.205;entryDx=0;entryDy=0;entryPerimeter=0;exitX=0.001;exitY=0.207;exitDx=0;exitDy=0;exitPerimeter=0;" edge="1" parent="1">
          <mxGeometry width="50" height="50" relative="1" as="geometry">
            <mxPoint x="1720.4799999999998" y="840.4000000000001" as="sourcePoint" />
            <mxPoint x="1879.9999999999998" y="840" as="targetPoint" />
          </mxGeometry>
        </mxCell>
        <mxCell id="w-rCVOtRvk_F5D2muNZO-28" value="ProgrammersList" style="text;html=1;strokeColor=none;fillColor=none;align=center;verticalAlign=middle;whiteSpace=wrap;rounded=0;" vertex="1" parent="1">
          <mxGeometry x="890" y="820" width="100" height="10" as="geometry" />
        </mxCell>
        <mxCell id="w-rCVOtRvk_F5D2muNZO-32" value="UsersList" style="text;html=1;strokeColor=none;fillColor=none;align=center;verticalAlign=middle;whiteSpace=wrap;rounded=0;" vertex="1" parent="1">
          <mxGeometry x="1110" y="815" width="80" height="20" as="geometry" />
        </mxCell>
        <mxCell id="w-rCVOtRvk_F5D2muNZO-33" value="SoldiersList" style="text;html=1;strokeColor=none;fillColor=none;align=center;verticalAlign=middle;whiteSpace=wrap;rounded=0;" vertex="1" parent="1">
          <mxGeometry x="1760" y="815" width="80" height="20" as="geometry" />
        </mxCell>
        <mxCell id="w-rCVOtRvk_F5D2muNZO-34" value="" style="rounded=0;whiteSpace=wrap;html=1;" vertex="1" parent="1">
          <mxGeometry x="1070" y="1090" width="160" height="200" as="geometry" />
        </mxCell>
        <mxCell id="w-rCVOtRvk_F5D2muNZO-35" value="" style="endArrow=none;html=1;rounded=0;entryX=0.998;entryY=0.205;entryDx=0;entryDy=0;entryPerimeter=0;exitX=0.001;exitY=0.207;exitDx=0;exitDy=0;exitPerimeter=0;" edge="1" parent="1">
          <mxGeometry width="50" height="50" relative="1" as="geometry">
            <mxPoint x="1070" y="1120.3999999999999" as="sourcePoint" />
            <mxPoint x="1229.52" y="1119.9999999999998" as="targetPoint" />
          </mxGeometry>
        </mxCell>
        <mxCell id="w-rCVOtRvk_F5D2muNZO-36" value="Users" style="text;html=1;strokeColor=none;fillColor=none;align=center;verticalAlign=middle;whiteSpace=wrap;rounded=0;" vertex="1" parent="1">
          <mxGeometry x="1100" y="1095" width="100" height="20" as="geometry" />
        </mxCell>
        <mxCell id="w-rCVOtRvk_F5D2muNZO-268" style="edgeStyle=orthogonalEdgeStyle;rounded=0;orthogonalLoop=1;jettySize=auto;html=1;exitX=0.75;exitY=1;exitDx=0;exitDy=0;entryX=0.127;entryY=1;entryDx=0;entryDy=0;entryPerimeter=0;" edge="1" parent="1" source="w-rCVOtRvk_F5D2muNZO-38" target="w-rCVOtRvk_F5D2muNZO-141">
          <mxGeometry relative="1" as="geometry" />
        </mxCell>
        <mxCell id="w-rCVOtRvk_F5D2muNZO-38" value="" style="rounded=0;whiteSpace=wrap;html=1;" vertex="1" parent="1">
          <mxGeometry x="860" y="1090" width="160" height="200" as="geometry" />
        </mxCell>
        <mxCell id="w-rCVOtRvk_F5D2muNZO-39" value="" style="endArrow=none;html=1;rounded=0;entryX=0.998;entryY=0.205;entryDx=0;entryDy=0;entryPerimeter=0;exitX=0.001;exitY=0.207;exitDx=0;exitDy=0;exitPerimeter=0;" edge="1" parent="1">
          <mxGeometry width="50" height="50" relative="1" as="geometry">
            <mxPoint x="860.2399999999999" y="1120.4" as="sourcePoint" />
            <mxPoint x="1019.7599999999999" y="1120.0000000000002" as="targetPoint" />
          </mxGeometry>
        </mxCell>
        <mxCell id="w-rCVOtRvk_F5D2muNZO-40" value="Programmers" style="text;html=1;strokeColor=none;fillColor=none;align=center;verticalAlign=middle;whiteSpace=wrap;rounded=0;" vertex="1" parent="1">
          <mxGeometry x="890" y="1100" width="100" height="10" as="geometry" />
        </mxCell>
        <mxCell id="w-rCVOtRvk_F5D2muNZO-266" style="edgeStyle=orthogonalEdgeStyle;rounded=0;orthogonalLoop=1;jettySize=auto;html=1;exitX=0.25;exitY=1;exitDx=0;exitDy=0;entryX=0.877;entryY=1;entryDx=0;entryDy=0;entryPerimeter=0;" edge="1" parent="1" source="w-rCVOtRvk_F5D2muNZO-41" target="w-rCVOtRvk_F5D2muNZO-141">
          <mxGeometry relative="1" as="geometry" />
        </mxCell>
        <mxCell id="w-rCVOtRvk_F5D2muNZO-41" value="" style="rounded=0;whiteSpace=wrap;html=1;" vertex="1" parent="1">
          <mxGeometry x="1720" y="1090" width="160" height="200" as="geometry" />
        </mxCell>
        <mxCell id="w-rCVOtRvk_F5D2muNZO-42" value="" style="endArrow=none;html=1;rounded=0;entryX=0.998;entryY=0.205;entryDx=0;entryDy=0;entryPerimeter=0;exitX=0.001;exitY=0.207;exitDx=0;exitDy=0;exitPerimeter=0;" edge="1" parent="1">
          <mxGeometry width="50" height="50" relative="1" as="geometry">
            <mxPoint x="1720.48" y="1120.3999999999999" as="sourcePoint" />
            <mxPoint x="1880.0000000000002" y="1119.9999999999998" as="targetPoint" />
          </mxGeometry>
        </mxCell>
        <mxCell id="w-rCVOtRvk_F5D2muNZO-43" value="Soldiers" style="text;html=1;strokeColor=none;fillColor=none;align=center;verticalAlign=middle;whiteSpace=wrap;rounded=0;" vertex="1" parent="1">
          <mxGeometry x="1750" y="1095" width="100" height="20" as="geometry" />
        </mxCell>
        <mxCell id="w-rCVOtRvk_F5D2muNZO-64" value="" style="rounded=0;whiteSpace=wrap;html=1;" vertex="1" parent="1">
          <mxGeometry x="1950" y="1370" width="120" height="160" as="geometry" />
        </mxCell>
        <mxCell id="w-rCVOtRvk_F5D2muNZO-65" value="" style="endArrow=none;html=1;rounded=0;entryX=0.998;entryY=0.205;entryDx=0;entryDy=0;entryPerimeter=0;exitX=0.001;exitY=0.207;exitDx=0;exitDy=0;exitPerimeter=0;" edge="1" parent="1">
          <mxGeometry width="50" height="50" relative="1" as="geometry">
            <mxPoint x="1950.36" y="1390.32" as="sourcePoint" />
            <mxPoint x="2070" y="1390" as="targetPoint" />
          </mxGeometry>
        </mxCell>
        <mxCell id="w-rCVOtRvk_F5D2muNZO-66" value="LogisticSupport" style="text;html=1;strokeColor=none;fillColor=none;align=center;verticalAlign=middle;whiteSpace=wrap;rounded=0;" vertex="1" parent="1">
          <mxGeometry x="1960" y="1375" width="100" height="10" as="geometry" />
        </mxCell>
        <mxCell id="w-rCVOtRvk_F5D2muNZO-73" value="" style="rounded=0;whiteSpace=wrap;html=1;" vertex="1" parent="1">
          <mxGeometry x="1810" y="1370" width="120" height="160" as="geometry" />
        </mxCell>
        <mxCell id="w-rCVOtRvk_F5D2muNZO-74" value="" style="endArrow=none;html=1;rounded=0;entryX=0.998;entryY=0.205;entryDx=0;entryDy=0;entryPerimeter=0;exitX=0.001;exitY=0.207;exitDx=0;exitDy=0;exitPerimeter=0;" edge="1" parent="1">
          <mxGeometry width="50" height="50" relative="1" as="geometry">
            <mxPoint x="1810.1799999999998" y="1390.32" as="sourcePoint" />
            <mxPoint x="1929.8199999999997" y="1390" as="targetPoint" />
          </mxGeometry>
        </mxCell>
        <mxCell id="w-rCVOtRvk_F5D2muNZO-75" value="InfantrySoldier" style="text;html=1;strokeColor=none;fillColor=none;align=center;verticalAlign=middle;whiteSpace=wrap;rounded=0;" vertex="1" parent="1">
          <mxGeometry x="1820" y="1375" width="100" height="10" as="geometry" />
        </mxCell>
        <mxCell id="w-rCVOtRvk_F5D2muNZO-76" value="" style="rounded=0;whiteSpace=wrap;html=1;" vertex="1" parent="1">
          <mxGeometry x="1670" y="1370" width="120" height="160" as="geometry" />
        </mxCell>
        <mxCell id="w-rCVOtRvk_F5D2muNZO-77" value="" style="endArrow=none;html=1;rounded=0;entryX=0.998;entryY=0.205;entryDx=0;entryDy=0;entryPerimeter=0;exitX=0.001;exitY=0.207;exitDx=0;exitDy=0;exitPerimeter=0;" edge="1" parent="1">
          <mxGeometry width="50" height="50" relative="1" as="geometry">
            <mxPoint x="1670" y="1390.32" as="sourcePoint" />
            <mxPoint x="1789.64" y="1390" as="targetPoint" />
          </mxGeometry>
        </mxCell>
        <mxCell id="w-rCVOtRvk_F5D2muNZO-78" value="CombatIntelligence" style="text;html=1;strokeColor=none;fillColor=none;align=center;verticalAlign=middle;whiteSpace=wrap;rounded=0;" vertex="1" parent="1">
          <mxGeometry x="1680" y="1375" width="100" height="10" as="geometry" />
        </mxCell>
        <mxCell id="w-rCVOtRvk_F5D2muNZO-79" value="" style="rounded=0;whiteSpace=wrap;html=1;" vertex="1" parent="1">
          <mxGeometry x="1530" y="1370" width="120" height="160" as="geometry" />
        </mxCell>
        <mxCell id="w-rCVOtRvk_F5D2muNZO-80" value="" style="endArrow=none;html=1;rounded=0;entryX=0.998;entryY=0.205;entryDx=0;entryDy=0;entryPerimeter=0;exitX=0.001;exitY=0.207;exitDx=0;exitDy=0;exitPerimeter=0;" edge="1" parent="1">
          <mxGeometry width="50" height="50" relative="1" as="geometry">
            <mxPoint x="1530.1799999999998" y="1390.32" as="sourcePoint" />
            <mxPoint x="1649.82" y="1390" as="targetPoint" />
          </mxGeometry>
        </mxCell>
        <mxCell id="w-rCVOtRvk_F5D2muNZO-81" value="ArtillerySoldier" style="text;html=1;strokeColor=none;fillColor=none;align=center;verticalAlign=middle;whiteSpace=wrap;rounded=0;" vertex="1" parent="1">
          <mxGeometry x="1540" y="1375" width="100" height="10" as="geometry" />
        </mxCell>
        <mxCell id="w-rCVOtRvk_F5D2muNZO-85" value="" style="endArrow=none;html=1;rounded=0;" edge="1" parent="1">
          <mxGeometry width="50" height="50" relative="1" as="geometry">
            <mxPoint x="1729.76" y="1370" as="sourcePoint" />
            <mxPoint x="1730" y="1330" as="targetPoint" />
          </mxGeometry>
        </mxCell>
        <mxCell id="w-rCVOtRvk_F5D2muNZO-87" value="" style="endArrow=none;html=1;rounded=0;" edge="1" parent="1">
          <mxGeometry width="50" height="50" relative="1" as="geometry">
            <mxPoint x="1869.83" y="1370" as="sourcePoint" />
            <mxPoint x="1870.07" y="1330" as="targetPoint" />
          </mxGeometry>
        </mxCell>
        <mxCell id="w-rCVOtRvk_F5D2muNZO-88" value="" style="endArrow=none;html=1;rounded=0;" edge="1" parent="1">
          <mxGeometry width="50" height="50" relative="1" as="geometry">
            <mxPoint x="2009.88" y="1370" as="sourcePoint" />
            <mxPoint x="2010.12" y="1330" as="targetPoint" />
          </mxGeometry>
        </mxCell>
        <mxCell id="w-rCVOtRvk_F5D2muNZO-90" value="" style="endArrow=none;html=1;rounded=0;" edge="1" parent="1">
          <mxGeometry width="50" height="50" relative="1" as="geometry">
            <mxPoint x="1585" y="1330" as="sourcePoint" />
            <mxPoint x="2155" y="1330" as="targetPoint" />
          </mxGeometry>
        </mxCell>
        <mxCell id="w-rCVOtRvk_F5D2muNZO-91" value="" style="endArrow=none;html=1;rounded=0;" edge="1" parent="1" target="w-rCVOtRvk_F5D2muNZO-92">
          <mxGeometry width="50" height="50" relative="1" as="geometry">
            <mxPoint x="1800" y="1330" as="sourcePoint" />
            <mxPoint x="1789.76" y="1310" as="targetPoint" />
          </mxGeometry>
        </mxCell>
        <mxCell id="w-rCVOtRvk_F5D2muNZO-92" value="" style="triangle;whiteSpace=wrap;html=1;rotation=-90;" vertex="1" parent="1">
          <mxGeometry x="1786.54" y="1283.78" width="26.92" height="39.36" as="geometry" />
        </mxCell>
        <mxCell id="w-rCVOtRvk_F5D2muNZO-94" value="" style="rounded=0;whiteSpace=wrap;html=1;" vertex="1" parent="1">
          <mxGeometry x="2095" y="1370" width="120" height="160" as="geometry" />
        </mxCell>
        <mxCell id="w-rCVOtRvk_F5D2muNZO-95" value="" style="endArrow=none;html=1;rounded=0;entryX=0.998;entryY=0.205;entryDx=0;entryDy=0;entryPerimeter=0;exitX=0.001;exitY=0.207;exitDx=0;exitDy=0;exitPerimeter=0;" edge="1" parent="1">
          <mxGeometry width="50" height="50" relative="1" as="geometry">
            <mxPoint x="2095" y="1390.32" as="sourcePoint" />
            <mxPoint x="2214.64" y="1390" as="targetPoint" />
          </mxGeometry>
        </mxCell>
        <mxCell id="w-rCVOtRvk_F5D2muNZO-96" value="SpecialOpsSoldiers" style="text;html=1;strokeColor=none;fillColor=none;align=center;verticalAlign=middle;whiteSpace=wrap;rounded=0;" vertex="1" parent="1">
          <mxGeometry x="2105" y="1375" width="100" height="10" as="geometry" />
        </mxCell>
        <mxCell id="w-rCVOtRvk_F5D2muNZO-97" value="" style="endArrow=none;html=1;rounded=0;" edge="1" parent="1">
          <mxGeometry width="50" height="50" relative="1" as="geometry">
            <mxPoint x="2154.41" y="1370" as="sourcePoint" />
            <mxPoint x="2154.6499999999996" y="1330" as="targetPoint" />
          </mxGeometry>
        </mxCell>
        <mxCell id="w-rCVOtRvk_F5D2muNZO-101" value="" style="endArrow=none;html=1;rounded=0;" edge="1" parent="1">
          <mxGeometry width="50" height="50" relative="1" as="geometry">
            <mxPoint x="1585" y="1370" as="sourcePoint" />
            <mxPoint x="1585.24" y="1330" as="targetPoint" />
          </mxGeometry>
        </mxCell>
        <mxCell id="w-rCVOtRvk_F5D2muNZO-102" value="" style="rounded=0;whiteSpace=wrap;html=1;" vertex="1" parent="1">
          <mxGeometry x="1020" y="1370" width="120" height="160" as="geometry" />
        </mxCell>
        <mxCell id="w-rCVOtRvk_F5D2muNZO-103" value="" style="endArrow=none;html=1;rounded=0;entryX=0.998;entryY=0.205;entryDx=0;entryDy=0;entryPerimeter=0;exitX=0.001;exitY=0.207;exitDx=0;exitDy=0;exitPerimeter=0;" edge="1" parent="1">
          <mxGeometry width="50" height="50" relative="1" as="geometry">
            <mxPoint x="1020.3600000000001" y="1390.32" as="sourcePoint" />
            <mxPoint x="1140" y="1390.0000000000002" as="targetPoint" />
          </mxGeometry>
        </mxCell>
        <mxCell id="w-rCVOtRvk_F5D2muNZO-104" value="ThreatAnalyst" style="text;html=1;strokeColor=none;fillColor=none;align=center;verticalAlign=middle;whiteSpace=wrap;rounded=0;" vertex="1" parent="1">
          <mxGeometry x="1030" y="1375" width="100" height="10" as="geometry" />
        </mxCell>
        <mxCell id="w-rCVOtRvk_F5D2muNZO-105" value="" style="rounded=0;whiteSpace=wrap;html=1;" vertex="1" parent="1">
          <mxGeometry x="880" y="1370" width="120" height="160" as="geometry" />
        </mxCell>
        <mxCell id="w-rCVOtRvk_F5D2muNZO-106" value="" style="endArrow=none;html=1;rounded=0;entryX=0.998;entryY=0.205;entryDx=0;entryDy=0;entryPerimeter=0;exitX=0.001;exitY=0.207;exitDx=0;exitDy=0;exitPerimeter=0;" edge="1" parent="1">
          <mxGeometry width="50" height="50" relative="1" as="geometry">
            <mxPoint x="880.1800000000001" y="1390.32" as="sourcePoint" />
            <mxPoint x="999.82" y="1390.0000000000002" as="targetPoint" />
          </mxGeometry>
        </mxCell>
        <mxCell id="w-rCVOtRvk_F5D2muNZO-107" value="CryptographyExpert" style="text;html=1;strokeColor=none;fillColor=none;align=center;verticalAlign=middle;whiteSpace=wrap;rounded=0;" vertex="1" parent="1">
          <mxGeometry x="890" y="1380" width="100" as="geometry" />
        </mxCell>
        <mxCell id="w-rCVOtRvk_F5D2muNZO-108" value="" style="rounded=0;whiteSpace=wrap;html=1;" vertex="1" parent="1">
          <mxGeometry x="740" y="1370" width="120" height="160" as="geometry" />
        </mxCell>
        <mxCell id="w-rCVOtRvk_F5D2muNZO-109" value="" style="endArrow=none;html=1;rounded=0;entryX=0.998;entryY=0.205;entryDx=0;entryDy=0;entryPerimeter=0;exitX=0.001;exitY=0.207;exitDx=0;exitDy=0;exitPerimeter=0;" edge="1" parent="1">
          <mxGeometry width="50" height="50" relative="1" as="geometry">
            <mxPoint x="740.36" y="1390.32" as="sourcePoint" />
            <mxPoint x="860" y="1390.0000000000002" as="targetPoint" />
          </mxGeometry>
        </mxCell>
        <mxCell id="w-rCVOtRvk_F5D2muNZO-110" value="AiEngineer" style="text;html=1;strokeColor=none;fillColor=none;align=center;verticalAlign=middle;whiteSpace=wrap;rounded=0;" vertex="1" parent="1">
          <mxGeometry x="750" y="1375" width="100" height="10" as="geometry" />
        </mxCell>
        <mxCell id="w-rCVOtRvk_F5D2muNZO-111" value="" style="endArrow=none;html=1;rounded=0;" edge="1" parent="1">
          <mxGeometry width="50" height="50" relative="1" as="geometry">
            <mxPoint x="939.76" y="1370" as="sourcePoint" />
            <mxPoint x="940" y="1330" as="targetPoint" />
          </mxGeometry>
        </mxCell>
        <mxCell id="w-rCVOtRvk_F5D2muNZO-112" value="" style="endArrow=none;html=1;rounded=0;" edge="1" parent="1">
          <mxGeometry width="50" height="50" relative="1" as="geometry">
            <mxPoint x="1079.83" y="1370" as="sourcePoint" />
            <mxPoint x="1080.07" y="1330" as="targetPoint" />
          </mxGeometry>
        </mxCell>
        <mxCell id="w-rCVOtRvk_F5D2muNZO-114" value="" style="endArrow=none;html=1;rounded=0;" edge="1" parent="1">
          <mxGeometry width="50" height="50" relative="1" as="geometry">
            <mxPoint x="795" y="1370" as="sourcePoint" />
            <mxPoint x="795.24" y="1330" as="targetPoint" />
          </mxGeometry>
        </mxCell>
        <mxCell id="w-rCVOtRvk_F5D2muNZO-115" value="" style="endArrow=none;html=1;rounded=0;" edge="1" parent="1">
          <mxGeometry width="50" height="50" relative="1" as="geometry">
            <mxPoint x="795" y="1330" as="sourcePoint" />
            <mxPoint x="1080" y="1330" as="targetPoint" />
          </mxGeometry>
        </mxCell>
        <mxCell id="w-rCVOtRvk_F5D2muNZO-116" value="" style="endArrow=none;html=1;rounded=0;entryX=-0.008;entryY=0.492;entryDx=0;entryDy=0;entryPerimeter=0;" edge="1" parent="1" target="w-rCVOtRvk_F5D2muNZO-117">
          <mxGeometry width="50" height="50" relative="1" as="geometry">
            <mxPoint x="939.88" y="1333" as="sourcePoint" />
            <mxPoint x="940.12" y="1320" as="targetPoint" />
          </mxGeometry>
        </mxCell>
        <mxCell id="w-rCVOtRvk_F5D2muNZO-117" value="" style="triangle;whiteSpace=wrap;html=1;rotation=-90;" vertex="1" parent="1">
          <mxGeometry x="926.54" y="1283.78" width="26.92" height="39.36" as="geometry" />
        </mxCell>
        <mxCell id="w-rCVOtRvk_F5D2muNZO-118" value="" style="rhombus;whiteSpace=wrap;html=1;" vertex="1" parent="1">
          <mxGeometry x="920" y="1010" width="40" height="40" as="geometry" />
        </mxCell>
        <mxCell id="w-rCVOtRvk_F5D2muNZO-125" value="" style="endArrow=none;html=1;rounded=0;" edge="1" parent="1">
          <mxGeometry width="50" height="50" relative="1" as="geometry">
            <mxPoint x="939.52" y="1090" as="sourcePoint" />
            <mxPoint x="940" y="1050" as="targetPoint" />
          </mxGeometry>
        </mxCell>
        <mxCell id="w-rCVOtRvk_F5D2muNZO-130" value="" style="rhombus;whiteSpace=wrap;html=1;" vertex="1" parent="1">
          <mxGeometry x="1130" y="1010" width="40" height="40" as="geometry" />
        </mxCell>
        <mxCell id="w-rCVOtRvk_F5D2muNZO-131" value="" style="rhombus;whiteSpace=wrap;html=1;" vertex="1" parent="1">
          <mxGeometry x="1780" y="1010" width="40" height="40" as="geometry" />
        </mxCell>
        <mxCell id="w-rCVOtRvk_F5D2muNZO-132" value="" style="endArrow=none;html=1;rounded=0;" edge="1" parent="1">
          <mxGeometry width="50" height="50" relative="1" as="geometry">
            <mxPoint x="1149.52" y="1090" as="sourcePoint" />
            <mxPoint x="1150" y="1050" as="targetPoint" />
          </mxGeometry>
        </mxCell>
        <mxCell id="w-rCVOtRvk_F5D2muNZO-133" value="" style="endArrow=none;html=1;rounded=0;" edge="1" parent="1">
          <mxGeometry width="50" height="50" relative="1" as="geometry">
            <mxPoint x="1799.52" y="1090" as="sourcePoint" />
            <mxPoint x="1800" y="1050" as="targetPoint" />
          </mxGeometry>
        </mxCell>
        <mxCell id="w-rCVOtRvk_F5D2muNZO-146" style="edgeStyle=orthogonalEdgeStyle;rounded=0;orthogonalLoop=1;jettySize=auto;html=1;exitX=0.5;exitY=0;exitDx=0;exitDy=0;entryX=0.955;entryY=0.986;entryDx=0;entryDy=0;entryPerimeter=0;" edge="1" parent="1" source="w-rCVOtRvk_F5D2muNZO-138" target="w-rCVOtRvk_F5D2muNZO-7">
          <mxGeometry relative="1" as="geometry">
            <mxPoint x="1400" y="720.0000000000001" as="targetPoint" />
          </mxGeometry>
        </mxCell>
        <mxCell id="w-rCVOtRvk_F5D2muNZO-138" value="" style="rounded=0;whiteSpace=wrap;html=1;" vertex="1" parent="1">
          <mxGeometry x="1510" y="810" width="160" height="200" as="geometry" />
        </mxCell>
        <mxCell id="w-rCVOtRvk_F5D2muNZO-139" value="" style="endArrow=none;html=1;rounded=0;entryX=0.998;entryY=0.205;entryDx=0;entryDy=0;entryPerimeter=0;exitX=0.001;exitY=0.207;exitDx=0;exitDy=0;exitPerimeter=0;" edge="1" parent="1">
          <mxGeometry width="50" height="50" relative="1" as="geometry">
            <mxPoint x="1510.4799999999998" y="840.4000000000001" as="sourcePoint" />
            <mxPoint x="1669.9999999999998" y="840" as="targetPoint" />
          </mxGeometry>
        </mxCell>
        <mxCell id="w-rCVOtRvk_F5D2muNZO-140" value="TeamsList" style="text;html=1;strokeColor=none;fillColor=none;align=center;verticalAlign=middle;whiteSpace=wrap;rounded=0;" vertex="1" parent="1">
          <mxGeometry x="1550" y="815" width="80" height="20" as="geometry" />
        </mxCell>
        <mxCell id="w-rCVOtRvk_F5D2muNZO-141" value="" style="rounded=0;whiteSpace=wrap;html=1;" vertex="1" parent="1">
          <mxGeometry x="1490" y="1090" width="200" height="200" as="geometry" />
        </mxCell>
        <mxCell id="w-rCVOtRvk_F5D2muNZO-143" value="Teams" style="text;html=1;strokeColor=none;fillColor=none;align=center;verticalAlign=middle;whiteSpace=wrap;rounded=0;" vertex="1" parent="1">
          <mxGeometry x="1570" y="1095" width="40" height="15" as="geometry" />
        </mxCell>
        <mxCell id="w-rCVOtRvk_F5D2muNZO-144" value="" style="rhombus;whiteSpace=wrap;html=1;" vertex="1" parent="1">
          <mxGeometry x="1570" y="1010" width="40" height="40" as="geometry" />
        </mxCell>
        <mxCell id="w-rCVOtRvk_F5D2muNZO-145" value="" style="endArrow=none;html=1;rounded=0;" edge="1" parent="1">
          <mxGeometry width="50" height="50" relative="1" as="geometry">
            <mxPoint x="1589.52" y="1090" as="sourcePoint" />
            <mxPoint x="1590" y="1050" as="targetPoint" />
          </mxGeometry>
        </mxCell>
        <mxCell id="w-rCVOtRvk_F5D2muNZO-158" style="edgeStyle=orthogonalEdgeStyle;rounded=0;orthogonalLoop=1;jettySize=auto;html=1;exitX=0.457;exitY=0;exitDx=0;exitDy=0;entryX=0.554;entryY=1;entryDx=0;entryDy=0;entryPerimeter=0;exitPerimeter=0;" edge="1" parent="1" source="w-rCVOtRvk_F5D2muNZO-148" target="w-rCVOtRvk_F5D2muNZO-7">
          <mxGeometry relative="1" as="geometry" />
        </mxCell>
        <mxCell id="w-rCVOtRvk_F5D2muNZO-148" value="" style="rounded=0;whiteSpace=wrap;html=1;" vertex="1" parent="1">
          <mxGeometry x="1290" y="810" width="160" height="200" as="geometry" />
        </mxCell>
        <mxCell id="w-rCVOtRvk_F5D2muNZO-149" value="" style="endArrow=none;html=1;rounded=0;entryX=0.998;entryY=0.205;entryDx=0;entryDy=0;entryPerimeter=0;exitX=0.001;exitY=0.207;exitDx=0;exitDy=0;exitPerimeter=0;" edge="1" parent="1">
          <mxGeometry width="50" height="50" relative="1" as="geometry">
            <mxPoint x="1290.4799999999998" y="840.4000000000001" as="sourcePoint" />
            <mxPoint x="1449.9999999999998" y="840" as="targetPoint" />
          </mxGeometry>
        </mxCell>
        <mxCell id="w-rCVOtRvk_F5D2muNZO-150" value="IAList" style="text;html=1;strokeColor=none;fillColor=none;align=center;verticalAlign=middle;whiteSpace=wrap;rounded=0;" vertex="1" parent="1">
          <mxGeometry x="1330" y="815" width="80" height="20" as="geometry" />
        </mxCell>
        <mxCell id="w-rCVOtRvk_F5D2muNZO-151" value="" style="rounded=0;whiteSpace=wrap;html=1;" vertex="1" parent="1">
          <mxGeometry x="1290" y="1090" width="160" height="200" as="geometry" />
        </mxCell>
        <mxCell id="w-rCVOtRvk_F5D2muNZO-152" value="" style="endArrow=none;html=1;rounded=0;entryX=0.998;entryY=0.205;entryDx=0;entryDy=0;entryPerimeter=0;exitX=0.001;exitY=0.207;exitDx=0;exitDy=0;exitPerimeter=0;" edge="1" parent="1">
          <mxGeometry width="50" height="50" relative="1" as="geometry">
            <mxPoint x="1290.24" y="1120.3999999999999" as="sourcePoint" />
            <mxPoint x="1449.76" y="1119.9999999999998" as="targetPoint" />
          </mxGeometry>
        </mxCell>
        <mxCell id="w-rCVOtRvk_F5D2muNZO-153" value="IA" style="text;html=1;strokeColor=none;fillColor=none;align=center;verticalAlign=middle;whiteSpace=wrap;rounded=0;" vertex="1" parent="1">
          <mxGeometry x="1320" y="1095" width="100" height="20" as="geometry" />
        </mxCell>
        <mxCell id="w-rCVOtRvk_F5D2muNZO-154" value="" style="rhombus;whiteSpace=wrap;html=1;" vertex="1" parent="1">
          <mxGeometry x="1350" y="1010" width="40" height="40" as="geometry" />
        </mxCell>
        <mxCell id="w-rCVOtRvk_F5D2muNZO-155" value="" style="endArrow=none;html=1;rounded=0;" edge="1" parent="1">
          <mxGeometry width="50" height="50" relative="1" as="geometry">
            <mxPoint x="1369.52" y="1090" as="sourcePoint" />
            <mxPoint x="1370" y="1050" as="targetPoint" />
          </mxGeometry>
        </mxCell>
        <mxCell id="w-rCVOtRvk_F5D2muNZO-160" value="" style="line;strokeWidth=2;html=1;" vertex="1" parent="1">
          <mxGeometry x="860" y="1185" width="160" height="10" as="geometry" />
        </mxCell>
        <mxCell id="w-rCVOtRvk_F5D2muNZO-161" value="" style="line;strokeWidth=2;html=1;" vertex="1" parent="1">
          <mxGeometry x="1070" y="1185" width="160" height="10" as="geometry" />
        </mxCell>
        <mxCell id="w-rCVOtRvk_F5D2muNZO-162" value="" style="line;strokeWidth=2;html=1;" vertex="1" parent="1">
          <mxGeometry x="1290" y="1185" width="160" height="10" as="geometry" />
        </mxCell>
        <mxCell id="w-rCVOtRvk_F5D2muNZO-163" value="" style="line;strokeWidth=2;html=1;" vertex="1" parent="1">
          <mxGeometry x="860" y="880" width="160" height="10" as="geometry" />
        </mxCell>
        <mxCell id="w-rCVOtRvk_F5D2muNZO-164" value="" style="line;strokeWidth=2;html=1;" vertex="1" parent="1">
          <mxGeometry x="1070" y="880" width="160" height="10" as="geometry" />
        </mxCell>
        <mxCell id="w-rCVOtRvk_F5D2muNZO-165" value="" style="line;strokeWidth=2;html=1;" vertex="1" parent="1">
          <mxGeometry x="1290" y="880" width="160" height="10" as="geometry" />
        </mxCell>
        <mxCell id="w-rCVOtRvk_F5D2muNZO-166" value="" style="line;strokeWidth=2;html=1;" vertex="1" parent="1">
          <mxGeometry x="1510" y="880" width="160" height="10" as="geometry" />
        </mxCell>
        <mxCell id="w-rCVOtRvk_F5D2muNZO-167" value="" style="line;strokeWidth=2;html=1;" vertex="1" parent="1">
          <mxGeometry x="1720" y="880" width="160" height="10" as="geometry" />
        </mxCell>
        <mxCell id="w-rCVOtRvk_F5D2muNZO-168" value="" style="line;strokeWidth=2;html=1;" vertex="1" parent="1">
          <mxGeometry x="1490" y="1195" width="200" height="10" as="geometry" />
        </mxCell>
        <mxCell id="w-rCVOtRvk_F5D2muNZO-169" value="" style="line;strokeWidth=2;html=1;" vertex="1" parent="1">
          <mxGeometry x="1720" y="1185" width="160" height="10" as="geometry" />
        </mxCell>
        <mxCell id="w-rCVOtRvk_F5D2muNZO-172" value="- soldiers SoldiersList" style="text;html=1;strokeColor=none;fillColor=none;align=left;verticalAlign=middle;whiteSpace=wrap;rounded=0;fontStyle=0;fontSize=10;" vertex="1" parent="1">
          <mxGeometry x="1275" y="620" width="135" height="10" as="geometry" />
        </mxCell>
        <mxCell id="w-rCVOtRvk_F5D2muNZO-176" value="" style="endArrow=none;html=1;rounded=0;exitX=0;exitY=0.561;exitDx=0;exitDy=0;exitPerimeter=0;" edge="1" parent="1" source="w-rCVOtRvk_F5D2muNZO-7">
          <mxGeometry relative="1" as="geometry">
            <mxPoint x="1280" y="680" as="sourcePoint" />
            <mxPoint x="1442.55" y="680" as="targetPoint" />
          </mxGeometry>
        </mxCell>
        <mxCell id="w-rCVOtRvk_F5D2muNZO-177" value="- programmers ProgrammersList" style="text;html=1;strokeColor=none;fillColor=none;align=left;verticalAlign=middle;whiteSpace=wrap;rounded=0;fontStyle=0;fontSize=10;" vertex="1" parent="1">
          <mxGeometry x="1275" y="630" width="247.45" height="10" as="geometry" />
        </mxCell>
        <mxCell id="w-rCVOtRvk_F5D2muNZO-178" value="- ias IAList" style="text;html=1;strokeColor=none;fillColor=none;align=left;verticalAlign=middle;whiteSpace=wrap;rounded=0;fontStyle=0;fontSize=10;" vertex="1" parent="1">
          <mxGeometry x="1275" y="640" width="135" height="10" as="geometry" />
        </mxCell>
        <mxCell id="w-rCVOtRvk_F5D2muNZO-179" value="- teams TeamsList" style="text;html=1;strokeColor=none;fillColor=none;align=left;verticalAlign=middle;whiteSpace=wrap;rounded=0;fontStyle=0;fontSize=10;" vertex="1" parent="1">
          <mxGeometry x="1275" y="660" width="135" height="10" as="geometry" />
        </mxCell>
        <mxCell id="w-rCVOtRvk_F5D2muNZO-180" value="&lt;span style=&quot;font-weight: normal;&quot;&gt;+ fillUsers()&lt;br&gt;&lt;/span&gt;" style="text;html=1;strokeColor=none;fillColor=none;align=left;verticalAlign=middle;whiteSpace=wrap;rounded=0;fontStyle=1;fontSize=10;" vertex="1" parent="1">
          <mxGeometry x="1275" y="690" width="75" height="10" as="geometry" />
        </mxCell>
        <mxCell id="w-rCVOtRvk_F5D2muNZO-181" value="&lt;span style=&quot;font-weight: normal;&quot;&gt;+ fillProgrammers()&lt;br&gt;&lt;/span&gt;" style="text;html=1;strokeColor=none;fillColor=none;align=left;verticalAlign=middle;whiteSpace=wrap;rounded=0;fontStyle=1;fontSize=10;" vertex="1" parent="1">
          <mxGeometry x="1275" y="700" width="95" height="10" as="geometry" />
        </mxCell>
        <mxCell id="w-rCVOtRvk_F5D2muNZO-182" value="&lt;span style=&quot;font-weight: normal;&quot;&gt;+ fillIAs()&lt;br&gt;&lt;/span&gt;" style="text;html=1;strokeColor=none;fillColor=none;align=left;verticalAlign=middle;whiteSpace=wrap;rounded=0;fontStyle=1;fontSize=10;" vertex="1" parent="1">
          <mxGeometry x="1275" y="710" width="75" height="10" as="geometry" />
        </mxCell>
        <mxCell id="w-rCVOtRvk_F5D2muNZO-183" value="&lt;span style=&quot;font-weight: normal;&quot;&gt;+ fillTeams()&lt;br&gt;&lt;/span&gt;" style="text;html=1;strokeColor=none;fillColor=none;align=left;verticalAlign=middle;whiteSpace=wrap;rounded=0;fontStyle=1;fontSize=10;" vertex="1" parent="1">
          <mxGeometry x="1275" y="730" width="75" height="10" as="geometry" />
        </mxCell>
        <mxCell id="w-rCVOtRvk_F5D2muNZO-185" value="- users UsersList" style="text;html=1;strokeColor=none;fillColor=none;align=left;verticalAlign=middle;whiteSpace=wrap;rounded=0;fontStyle=0;fontSize=10;" vertex="1" parent="1">
          <mxGeometry x="1275" y="650" width="135" height="10" as="geometry" />
        </mxCell>
        <mxCell id="w-rCVOtRvk_F5D2muNZO-190" value="- user List&amp;lt;&lt;u&gt;Users&amp;gt;&lt;/u&gt;&amp;nbsp;" style="text;html=1;strokeColor=none;fillColor=none;align=left;verticalAlign=middle;whiteSpace=wrap;rounded=0;fontStyle=0;fontSize=10;" vertex="1" parent="1">
          <mxGeometry x="1072.5" y="860" width="117.5" height="10" as="geometry" />
        </mxCell>
        <mxCell id="w-rCVOtRvk_F5D2muNZO-191" value="- ia List&amp;lt;&lt;u&gt;IA&amp;gt;&lt;/u&gt;&amp;nbsp;" style="text;html=1;strokeColor=none;fillColor=none;align=left;verticalAlign=middle;whiteSpace=wrap;rounded=0;fontStyle=0;fontSize=10;" vertex="1" parent="1">
          <mxGeometry x="1292.5" y="860" width="117.5" height="10" as="geometry" />
        </mxCell>
        <mxCell id="w-rCVOtRvk_F5D2muNZO-192" value="- team List&amp;lt;&lt;u&gt;Teams&amp;gt;&lt;/u&gt;&amp;nbsp;" style="text;html=1;strokeColor=none;fillColor=none;align=left;verticalAlign=middle;whiteSpace=wrap;rounded=0;fontStyle=0;fontSize=10;" vertex="1" parent="1">
          <mxGeometry x="1512.5" y="860" width="117.5" height="10" as="geometry" />
        </mxCell>
        <mxCell id="w-rCVOtRvk_F5D2muNZO-193" value="- soldier List&amp;lt;&lt;u&gt;Soldiers&amp;gt;&lt;/u&gt;&amp;nbsp;" style="text;html=1;strokeColor=none;fillColor=none;align=left;verticalAlign=middle;whiteSpace=wrap;rounded=0;fontStyle=0;fontSize=10;" vertex="1" parent="1">
          <mxGeometry x="1722.5" y="860" width="117.5" height="10" as="geometry" />
        </mxCell>
        <mxCell id="w-rCVOtRvk_F5D2muNZO-194" value="&lt;span style=&quot;font-weight: normal;&quot;&gt;+ ProgrammersList(...)&lt;br&gt;&lt;/span&gt;" style="text;html=1;strokeColor=none;fillColor=none;align=left;verticalAlign=middle;whiteSpace=wrap;rounded=0;fontStyle=1;fontSize=10;" vertex="1" parent="1">
          <mxGeometry x="860" y="895" width="150" height="10" as="geometry" />
        </mxCell>
        <mxCell id="w-rCVOtRvk_F5D2muNZO-195" value="&lt;span style=&quot;font-weight: normal;&quot;&gt;+ search() int&lt;br&gt;&lt;/span&gt;" style="text;html=1;strokeColor=none;fillColor=none;align=left;verticalAlign=middle;whiteSpace=wrap;rounded=0;fontStyle=1;fontSize=10;" vertex="1" parent="1">
          <mxGeometry x="860" y="905" width="150" height="10" as="geometry" />
        </mxCell>
        <mxCell id="w-rCVOtRvk_F5D2muNZO-196" value="&lt;span style=&quot;font-weight: normal;&quot;&gt;+ insert() boolean&lt;br&gt;&lt;/span&gt;" style="text;html=1;strokeColor=none;fillColor=none;align=left;verticalAlign=middle;whiteSpace=wrap;rounded=0;fontStyle=1;fontSize=10;" vertex="1" parent="1">
          <mxGeometry x="860" y="915" width="150" height="10" as="geometry" />
        </mxCell>
        <mxCell id="w-rCVOtRvk_F5D2muNZO-197" value="&lt;span style=&quot;font-weight: normal;&quot;&gt;+ obtain() Programmers&lt;br&gt;&lt;/span&gt;" style="text;html=1;strokeColor=none;fillColor=none;align=left;verticalAlign=middle;whiteSpace=wrap;rounded=0;fontStyle=1;fontSize=10;" vertex="1" parent="1">
          <mxGeometry x="860" y="925" width="150" height="10" as="geometry" />
        </mxCell>
        <mxCell id="w-rCVOtRvk_F5D2muNZO-198" value="&lt;span style=&quot;font-weight: normal;&quot;&gt;+ delete() boolean&lt;br&gt;&lt;/span&gt;" style="text;html=1;strokeColor=none;fillColor=none;align=left;verticalAlign=middle;whiteSpace=wrap;rounded=0;fontStyle=1;fontSize=10;" vertex="1" parent="1">
          <mxGeometry x="860" y="935" width="150" height="10" as="geometry" />
        </mxCell>
        <mxCell id="w-rCVOtRvk_F5D2muNZO-199" value="&lt;span style=&quot;font-weight: normal;&quot;&gt;+ modify() boolean&lt;br&gt;&lt;/span&gt;" style="text;html=1;strokeColor=none;fillColor=none;align=left;verticalAlign=middle;whiteSpace=wrap;rounded=0;fontStyle=1;fontSize=10;" vertex="1" parent="1">
          <mxGeometry x="860" y="945" width="150" height="10" as="geometry" />
        </mxCell>
        <mxCell id="w-rCVOtRvk_F5D2muNZO-200" value="&lt;span style=&quot;font-weight: normal;&quot;&gt;+ size() int&lt;br&gt;&lt;/span&gt;" style="text;html=1;strokeColor=none;fillColor=none;align=left;verticalAlign=middle;whiteSpace=wrap;rounded=0;fontStyle=1;fontSize=10;" vertex="1" parent="1">
          <mxGeometry x="860" y="955" width="150" height="10" as="geometry" />
        </mxCell>
        <mxCell id="w-rCVOtRvk_F5D2muNZO-201" value="- programmer List&amp;lt;Programmers&lt;u&gt;&amp;gt;&lt;/u&gt;&amp;nbsp;" style="text;html=1;strokeColor=none;fillColor=none;align=left;verticalAlign=middle;whiteSpace=wrap;rounded=0;fontStyle=0;fontSize=10;" vertex="1" parent="1">
          <mxGeometry x="860" y="860" width="160" height="10" as="geometry" />
        </mxCell>
        <mxCell id="w-rCVOtRvk_F5D2muNZO-202" value="&lt;span style=&quot;font-weight: normal;&quot;&gt;+ search() int&lt;br&gt;&lt;/span&gt;" style="text;html=1;strokeColor=none;fillColor=none;align=left;verticalAlign=middle;whiteSpace=wrap;rounded=0;fontStyle=1;fontSize=10;" vertex="1" parent="1">
          <mxGeometry x="1070" y="905" width="150" height="10" as="geometry" />
        </mxCell>
        <mxCell id="w-rCVOtRvk_F5D2muNZO-203" value="&lt;span style=&quot;font-weight: normal;&quot;&gt;+ search() int&lt;br&gt;&lt;/span&gt;" style="text;html=1;strokeColor=none;fillColor=none;align=left;verticalAlign=middle;whiteSpace=wrap;rounded=0;fontStyle=1;fontSize=10;" vertex="1" parent="1">
          <mxGeometry x="1290" y="905" width="150" height="10" as="geometry" />
        </mxCell>
        <mxCell id="w-rCVOtRvk_F5D2muNZO-204" value="&lt;span style=&quot;font-weight: normal;&quot;&gt;+ search() int&lt;br&gt;&lt;/span&gt;" style="text;html=1;strokeColor=none;fillColor=none;align=left;verticalAlign=middle;whiteSpace=wrap;rounded=0;fontStyle=1;fontSize=10;" vertex="1" parent="1">
          <mxGeometry x="1510" y="905" width="150" height="10" as="geometry" />
        </mxCell>
        <mxCell id="w-rCVOtRvk_F5D2muNZO-205" value="&lt;span style=&quot;font-weight: normal;&quot;&gt;+ search() int&lt;br&gt;&lt;/span&gt;" style="text;html=1;strokeColor=none;fillColor=none;align=left;verticalAlign=middle;whiteSpace=wrap;rounded=0;fontStyle=1;fontSize=10;" vertex="1" parent="1">
          <mxGeometry x="1720" y="905" width="150" height="10" as="geometry" />
        </mxCell>
        <mxCell id="w-rCVOtRvk_F5D2muNZO-206" value="&lt;span style=&quot;font-weight: normal;&quot;&gt;+ insert() boolean&lt;br&gt;&lt;/span&gt;" style="text;html=1;strokeColor=none;fillColor=none;align=left;verticalAlign=middle;whiteSpace=wrap;rounded=0;fontStyle=1;fontSize=10;" vertex="1" parent="1">
          <mxGeometry x="1070" y="915" width="150" height="10" as="geometry" />
        </mxCell>
        <mxCell id="w-rCVOtRvk_F5D2muNZO-207" value="&lt;span style=&quot;font-weight: normal;&quot;&gt;+ insert() boolean&lt;br&gt;&lt;/span&gt;" style="text;html=1;strokeColor=none;fillColor=none;align=left;verticalAlign=middle;whiteSpace=wrap;rounded=0;fontStyle=1;fontSize=10;" vertex="1" parent="1">
          <mxGeometry x="1290" y="915" width="150" height="10" as="geometry" />
        </mxCell>
        <mxCell id="w-rCVOtRvk_F5D2muNZO-208" value="&lt;span style=&quot;font-weight: normal;&quot;&gt;+ insert() boolean&lt;br&gt;&lt;/span&gt;" style="text;html=1;strokeColor=none;fillColor=none;align=left;verticalAlign=middle;whiteSpace=wrap;rounded=0;fontStyle=1;fontSize=10;" vertex="1" parent="1">
          <mxGeometry x="1510" y="915" width="150" height="10" as="geometry" />
        </mxCell>
        <mxCell id="w-rCVOtRvk_F5D2muNZO-209" value="&lt;span style=&quot;font-weight: normal;&quot;&gt;+ insert() boolean&lt;br&gt;&lt;/span&gt;" style="text;html=1;strokeColor=none;fillColor=none;align=left;verticalAlign=middle;whiteSpace=wrap;rounded=0;fontStyle=1;fontSize=10;" vertex="1" parent="1">
          <mxGeometry x="1720" y="915" width="150" height="10" as="geometry" />
        </mxCell>
        <mxCell id="w-rCVOtRvk_F5D2muNZO-210" value="&lt;span style=&quot;font-weight: normal;&quot;&gt;+ obtain() Programmers&lt;br&gt;&lt;/span&gt;" style="text;html=1;strokeColor=none;fillColor=none;align=left;verticalAlign=middle;whiteSpace=wrap;rounded=0;fontStyle=1;fontSize=10;" vertex="1" parent="1">
          <mxGeometry x="1070" y="925" width="150" height="10" as="geometry" />
        </mxCell>
        <mxCell id="w-rCVOtRvk_F5D2muNZO-211" value="&lt;span style=&quot;font-weight: normal;&quot;&gt;+ obtain() Programmers&lt;br&gt;&lt;/span&gt;" style="text;html=1;strokeColor=none;fillColor=none;align=left;verticalAlign=middle;whiteSpace=wrap;rounded=0;fontStyle=1;fontSize=10;" vertex="1" parent="1">
          <mxGeometry x="1290" y="925" width="150" height="10" as="geometry" />
        </mxCell>
        <mxCell id="w-rCVOtRvk_F5D2muNZO-212" value="&lt;span style=&quot;font-weight: normal;&quot;&gt;+ obtain() Programmers&lt;br&gt;&lt;/span&gt;" style="text;html=1;strokeColor=none;fillColor=none;align=left;verticalAlign=middle;whiteSpace=wrap;rounded=0;fontStyle=1;fontSize=10;" vertex="1" parent="1">
          <mxGeometry x="1510" y="925" width="150" height="10" as="geometry" />
        </mxCell>
        <mxCell id="w-rCVOtRvk_F5D2muNZO-213" value="&lt;span style=&quot;font-weight: normal;&quot;&gt;+ obtain() Programmers&lt;br&gt;&lt;/span&gt;" style="text;html=1;strokeColor=none;fillColor=none;align=left;verticalAlign=middle;whiteSpace=wrap;rounded=0;fontStyle=1;fontSize=10;" vertex="1" parent="1">
          <mxGeometry x="1720" y="925" width="150" height="10" as="geometry" />
        </mxCell>
        <mxCell id="w-rCVOtRvk_F5D2muNZO-214" value="&lt;span style=&quot;font-weight: normal;&quot;&gt;+ delete() boolean&lt;br&gt;&lt;/span&gt;" style="text;html=1;strokeColor=none;fillColor=none;align=left;verticalAlign=middle;whiteSpace=wrap;rounded=0;fontStyle=1;fontSize=10;" vertex="1" parent="1">
          <mxGeometry x="1070" y="935" width="150" height="10" as="geometry" />
        </mxCell>
        <mxCell id="w-rCVOtRvk_F5D2muNZO-215" value="&lt;span style=&quot;font-weight: normal;&quot;&gt;+ delete() boolean&lt;br&gt;&lt;/span&gt;" style="text;html=1;strokeColor=none;fillColor=none;align=left;verticalAlign=middle;whiteSpace=wrap;rounded=0;fontStyle=1;fontSize=10;" vertex="1" parent="1">
          <mxGeometry x="1290" y="935" width="150" height="10" as="geometry" />
        </mxCell>
        <mxCell id="w-rCVOtRvk_F5D2muNZO-216" value="&lt;span style=&quot;font-weight: normal;&quot;&gt;+ delete() boolean&lt;br&gt;&lt;/span&gt;" style="text;html=1;strokeColor=none;fillColor=none;align=left;verticalAlign=middle;whiteSpace=wrap;rounded=0;fontStyle=1;fontSize=10;" vertex="1" parent="1">
          <mxGeometry x="1510" y="935" width="150" height="10" as="geometry" />
        </mxCell>
        <mxCell id="w-rCVOtRvk_F5D2muNZO-217" value="&lt;span style=&quot;font-weight: normal;&quot;&gt;+ delete() boolean&lt;br&gt;&lt;/span&gt;" style="text;html=1;strokeColor=none;fillColor=none;align=left;verticalAlign=middle;whiteSpace=wrap;rounded=0;fontStyle=1;fontSize=10;" vertex="1" parent="1">
          <mxGeometry x="1720" y="935" width="150" height="10" as="geometry" />
        </mxCell>
        <mxCell id="w-rCVOtRvk_F5D2muNZO-218" value="&lt;span style=&quot;font-weight: normal;&quot;&gt;+ modify() boolean&lt;br&gt;&lt;/span&gt;" style="text;html=1;strokeColor=none;fillColor=none;align=left;verticalAlign=middle;whiteSpace=wrap;rounded=0;fontStyle=1;fontSize=10;" vertex="1" parent="1">
          <mxGeometry x="1070" y="945" width="150" height="10" as="geometry" />
        </mxCell>
        <mxCell id="w-rCVOtRvk_F5D2muNZO-219" value="&lt;span style=&quot;font-weight: normal;&quot;&gt;+ modify() boolean&lt;br&gt;&lt;/span&gt;" style="text;html=1;strokeColor=none;fillColor=none;align=left;verticalAlign=middle;whiteSpace=wrap;rounded=0;fontStyle=1;fontSize=10;" vertex="1" parent="1">
          <mxGeometry x="1290" y="945" width="150" height="10" as="geometry" />
        </mxCell>
        <mxCell id="w-rCVOtRvk_F5D2muNZO-220" value="&lt;span style=&quot;font-weight: normal;&quot;&gt;+ modify() boolean&lt;br&gt;&lt;/span&gt;" style="text;html=1;strokeColor=none;fillColor=none;align=left;verticalAlign=middle;whiteSpace=wrap;rounded=0;fontStyle=1;fontSize=10;" vertex="1" parent="1">
          <mxGeometry x="1510" y="945" width="150" height="10" as="geometry" />
        </mxCell>
        <mxCell id="w-rCVOtRvk_F5D2muNZO-221" value="&lt;span style=&quot;font-weight: normal;&quot;&gt;+ modify() boolean&lt;br&gt;&lt;/span&gt;" style="text;html=1;strokeColor=none;fillColor=none;align=left;verticalAlign=middle;whiteSpace=wrap;rounded=0;fontStyle=1;fontSize=10;" vertex="1" parent="1">
          <mxGeometry x="1720" y="945" width="150" height="10" as="geometry" />
        </mxCell>
        <mxCell id="w-rCVOtRvk_F5D2muNZO-222" value="&lt;span style=&quot;font-weight: normal;&quot;&gt;+ size() int&lt;br&gt;&lt;/span&gt;" style="text;html=1;strokeColor=none;fillColor=none;align=left;verticalAlign=middle;whiteSpace=wrap;rounded=0;fontStyle=1;fontSize=10;" vertex="1" parent="1">
          <mxGeometry x="1070" y="955" width="150" height="10" as="geometry" />
        </mxCell>
        <mxCell id="w-rCVOtRvk_F5D2muNZO-223" value="&lt;span style=&quot;font-weight: normal;&quot;&gt;+ size() int&lt;br&gt;&lt;/span&gt;" style="text;html=1;strokeColor=none;fillColor=none;align=left;verticalAlign=middle;whiteSpace=wrap;rounded=0;fontStyle=1;fontSize=10;" vertex="1" parent="1">
          <mxGeometry x="1290" y="955" width="150" height="10" as="geometry" />
        </mxCell>
        <mxCell id="w-rCVOtRvk_F5D2muNZO-224" value="&lt;span style=&quot;font-weight: normal;&quot;&gt;+ size() int&lt;br&gt;&lt;/span&gt;" style="text;html=1;strokeColor=none;fillColor=none;align=left;verticalAlign=middle;whiteSpace=wrap;rounded=0;fontStyle=1;fontSize=10;" vertex="1" parent="1">
          <mxGeometry x="1510" y="955" width="150" height="10" as="geometry" />
        </mxCell>
        <mxCell id="w-rCVOtRvk_F5D2muNZO-225" value="&lt;span style=&quot;font-weight: normal;&quot;&gt;+ size() int&lt;br&gt;&lt;/span&gt;" style="text;html=1;strokeColor=none;fillColor=none;align=left;verticalAlign=middle;whiteSpace=wrap;rounded=0;fontStyle=1;fontSize=10;" vertex="1" parent="1">
          <mxGeometry x="1720" y="955" width="150" height="10" as="geometry" />
        </mxCell>
        <mxCell id="w-rCVOtRvk_F5D2muNZO-227" value="&lt;span style=&quot;font-weight: normal;&quot;&gt;+ UsersList(...)&lt;br&gt;&lt;/span&gt;" style="text;html=1;strokeColor=none;fillColor=none;align=left;verticalAlign=middle;whiteSpace=wrap;rounded=0;fontStyle=1;fontSize=10;" vertex="1" parent="1">
          <mxGeometry x="1070" y="895" width="150" height="10" as="geometry" />
        </mxCell>
        <mxCell id="w-rCVOtRvk_F5D2muNZO-228" value="&lt;span style=&quot;font-weight: normal;&quot;&gt;+ IAList(...)&lt;br&gt;&lt;/span&gt;" style="text;html=1;strokeColor=none;fillColor=none;align=left;verticalAlign=middle;whiteSpace=wrap;rounded=0;fontStyle=1;fontSize=10;" vertex="1" parent="1">
          <mxGeometry x="1290" y="895" width="150" height="10" as="geometry" />
        </mxCell>
        <mxCell id="w-rCVOtRvk_F5D2muNZO-229" value="&lt;span style=&quot;font-weight: normal;&quot;&gt;+ SoldiersList(...)&lt;br&gt;&lt;/span&gt;" style="text;html=1;strokeColor=none;fillColor=none;align=left;verticalAlign=middle;whiteSpace=wrap;rounded=0;fontStyle=1;fontSize=10;" vertex="1" parent="1">
          <mxGeometry x="1720" y="895" width="150" height="10" as="geometry" />
        </mxCell>
        <mxCell id="w-rCVOtRvk_F5D2muNZO-230" value="&lt;span style=&quot;font-weight: normal;&quot;&gt;+ TeamsList(...)&lt;br&gt;&lt;/span&gt;" style="text;html=1;strokeColor=none;fillColor=none;align=left;verticalAlign=middle;whiteSpace=wrap;rounded=0;fontStyle=1;fontSize=10;" vertex="1" parent="1">
          <mxGeometry x="1510" y="895" width="150" height="10" as="geometry" />
        </mxCell>
        <mxCell id="w-rCVOtRvk_F5D2muNZO-232" value="- identification int" style="text;html=1;strokeColor=none;fillColor=none;align=left;verticalAlign=middle;whiteSpace=wrap;rounded=0;fontStyle=0;fontSize=10;" vertex="1" parent="1">
          <mxGeometry x="860" y="1130" width="135" height="10" as="geometry" />
        </mxCell>
        <mxCell id="w-rCVOtRvk_F5D2muNZO-233" value="- name String" style="text;html=1;strokeColor=none;fillColor=none;align=left;verticalAlign=middle;whiteSpace=wrap;rounded=0;fontStyle=0;fontSize=10;" vertex="1" parent="1">
          <mxGeometry x="860" y="1140" width="135" height="10" as="geometry" />
        </mxCell>
        <mxCell id="w-rCVOtRvk_F5D2muNZO-234" value="- lastName String" style="text;html=1;strokeColor=none;fillColor=none;align=left;verticalAlign=middle;whiteSpace=wrap;rounded=0;fontStyle=0;fontSize=10;" vertex="1" parent="1">
          <mxGeometry x="860" y="1150" width="135" height="10" as="geometry" />
        </mxCell>
        <mxCell id="w-rCVOtRvk_F5D2muNZO-235" value="- specialty String" style="text;html=1;strokeColor=none;fillColor=none;align=left;verticalAlign=middle;whiteSpace=wrap;rounded=0;fontStyle=0;fontSize=10;" vertex="1" parent="1">
          <mxGeometry x="860" y="1160" width="135" height="10" as="geometry" />
        </mxCell>
        <mxCell id="w-rCVOtRvk_F5D2muNZO-236" value="&lt;span style=&quot;font-weight: normal;&quot;&gt;+ Programmers(...)&lt;br&gt;&lt;/span&gt;" style="text;html=1;strokeColor=none;fillColor=none;align=left;verticalAlign=middle;whiteSpace=wrap;rounded=0;fontStyle=1;fontSize=10;" vertex="1" parent="1">
          <mxGeometry x="860" y="1220" width="150" height="10" as="geometry" />
        </mxCell>
        <mxCell id="w-rCVOtRvk_F5D2muNZO-237" value="&lt;span style=&quot;font-weight: normal;&quot;&gt;+ Gets and Sets(...)&lt;br&gt;&lt;/span&gt;" style="text;html=1;strokeColor=none;fillColor=none;align=left;verticalAlign=middle;whiteSpace=wrap;rounded=0;fontStyle=1;fontSize=10;" vertex="1" parent="1">
          <mxGeometry x="860" y="1230" width="150" height="10" as="geometry" />
        </mxCell>
        <mxCell id="w-rCVOtRvk_F5D2muNZO-238" value="&lt;span style=&quot;font-weight: normal;&quot;&gt;+ toString(...) String&lt;br&gt;&lt;/span&gt;" style="text;html=1;strokeColor=none;fillColor=none;align=left;verticalAlign=middle;whiteSpace=wrap;rounded=0;fontStyle=1;fontSize=10;" vertex="1" parent="1">
          <mxGeometry x="860" y="1240" width="150" height="10" as="geometry" />
        </mxCell>
        <mxCell id="w-rCVOtRvk_F5D2muNZO-239" value="&lt;span style=&quot;font-weight: normal;&quot;&gt;+ Gets and Sets(...)&lt;br&gt;&lt;/span&gt;" style="text;html=1;strokeColor=none;fillColor=none;align=left;verticalAlign=middle;whiteSpace=wrap;rounded=0;fontStyle=1;fontSize=10;" vertex="1" parent="1">
          <mxGeometry x="1070" y="1230" width="150" height="10" as="geometry" />
        </mxCell>
        <mxCell id="w-rCVOtRvk_F5D2muNZO-240" value="&lt;span style=&quot;font-weight: normal;&quot;&gt;+ Gets and Sets(...)&lt;br&gt;&lt;/span&gt;" style="text;html=1;strokeColor=none;fillColor=none;align=left;verticalAlign=middle;whiteSpace=wrap;rounded=0;fontStyle=1;fontSize=10;" vertex="1" parent="1">
          <mxGeometry x="1290" y="1230" width="150" height="10" as="geometry" />
        </mxCell>
        <mxCell id="w-rCVOtRvk_F5D2muNZO-241" value="&lt;span style=&quot;font-weight: normal;&quot;&gt;+ Gets and Sets(...)&lt;br&gt;&lt;/span&gt;" style="text;html=1;strokeColor=none;fillColor=none;align=left;verticalAlign=middle;whiteSpace=wrap;rounded=0;fontStyle=1;fontSize=10;" vertex="1" parent="1">
          <mxGeometry x="1490" y="1220" width="150" height="10" as="geometry" />
        </mxCell>
        <mxCell id="w-rCVOtRvk_F5D2muNZO-242" value="&lt;span style=&quot;font-weight: normal;&quot;&gt;+ Gets and Sets(...)&lt;br&gt;&lt;/span&gt;" style="text;html=1;strokeColor=none;fillColor=none;align=left;verticalAlign=middle;whiteSpace=wrap;rounded=0;fontStyle=1;fontSize=10;" vertex="1" parent="1">
          <mxGeometry x="1720" y="1230" width="150" height="10" as="geometry" />
        </mxCell>
        <mxCell id="w-rCVOtRvk_F5D2muNZO-243" value="&lt;span style=&quot;font-weight: normal;&quot;&gt;+ toString(...) String&lt;br&gt;&lt;/span&gt;" style="text;html=1;strokeColor=none;fillColor=none;align=left;verticalAlign=middle;whiteSpace=wrap;rounded=0;fontStyle=1;fontSize=10;" vertex="1" parent="1">
          <mxGeometry x="1070" y="1240" width="150" height="10" as="geometry" />
        </mxCell>
        <mxCell id="w-rCVOtRvk_F5D2muNZO-244" value="&lt;span style=&quot;font-weight: normal;&quot;&gt;+ toString(...) String&lt;br&gt;&lt;/span&gt;" style="text;html=1;strokeColor=none;fillColor=none;align=left;verticalAlign=middle;whiteSpace=wrap;rounded=0;fontStyle=1;fontSize=10;" vertex="1" parent="1">
          <mxGeometry x="1290" y="1240" width="150" height="10" as="geometry" />
        </mxCell>
        <mxCell id="w-rCVOtRvk_F5D2muNZO-245" value="&lt;span style=&quot;font-weight: normal;&quot;&gt;+ toString(...) String&lt;br&gt;&lt;/span&gt;" style="text;html=1;strokeColor=none;fillColor=none;align=left;verticalAlign=middle;whiteSpace=wrap;rounded=0;fontStyle=1;fontSize=10;" vertex="1" parent="1">
          <mxGeometry x="1490" y="1230" width="150" height="10" as="geometry" />
        </mxCell>
        <mxCell id="w-rCVOtRvk_F5D2muNZO-246" value="&lt;span style=&quot;font-weight: normal;&quot;&gt;+ toString(...) String&lt;br&gt;&lt;/span&gt;" style="text;html=1;strokeColor=none;fillColor=none;align=left;verticalAlign=middle;whiteSpace=wrap;rounded=0;fontStyle=1;fontSize=10;" vertex="1" parent="1">
          <mxGeometry x="1720" y="1240" width="150" height="10" as="geometry" />
        </mxCell>
        <mxCell id="w-rCVOtRvk_F5D2muNZO-247" value="&lt;span style=&quot;font-weight: normal;&quot;&gt;+ Users(...)&lt;br&gt;&lt;/span&gt;" style="text;html=1;strokeColor=none;fillColor=none;align=left;verticalAlign=middle;whiteSpace=wrap;rounded=0;fontStyle=1;fontSize=10;" vertex="1" parent="1">
          <mxGeometry x="1070" y="1220" width="150" height="10" as="geometry" />
        </mxCell>
        <mxCell id="w-rCVOtRvk_F5D2muNZO-248" value="&lt;span style=&quot;font-weight: normal;&quot;&gt;+ IA(...)&lt;br&gt;&lt;/span&gt;" style="text;html=1;strokeColor=none;fillColor=none;align=left;verticalAlign=middle;whiteSpace=wrap;rounded=0;fontStyle=1;fontSize=10;" vertex="1" parent="1">
          <mxGeometry x="1290" y="1220" width="150" height="10" as="geometry" />
        </mxCell>
        <mxCell id="w-rCVOtRvk_F5D2muNZO-249" value="&lt;span style=&quot;font-weight: normal;&quot;&gt;+ Teams(...)&lt;br&gt;&lt;/span&gt;" style="text;html=1;strokeColor=none;fillColor=none;align=left;verticalAlign=middle;whiteSpace=wrap;rounded=0;fontStyle=1;fontSize=10;" vertex="1" parent="1">
          <mxGeometry x="1490" y="1210" width="150" height="10" as="geometry" />
        </mxCell>
        <mxCell id="w-rCVOtRvk_F5D2muNZO-250" value="&lt;span style=&quot;font-weight: normal;&quot;&gt;+ Soldiers(...)&lt;br&gt;&lt;/span&gt;" style="text;html=1;strokeColor=none;fillColor=none;align=left;verticalAlign=middle;whiteSpace=wrap;rounded=0;fontStyle=1;fontSize=10;" vertex="1" parent="1">
          <mxGeometry x="1720" y="1220" width="150" height="10" as="geometry" />
        </mxCell>
        <mxCell id="w-rCVOtRvk_F5D2muNZO-251" value="- userName String" style="text;html=1;strokeColor=none;fillColor=none;align=left;verticalAlign=middle;whiteSpace=wrap;rounded=0;fontStyle=0;fontSize=10;" vertex="1" parent="1">
          <mxGeometry x="1070" y="1130" width="135" height="10" as="geometry" />
        </mxCell>
        <mxCell id="w-rCVOtRvk_F5D2muNZO-252" value="- password String" style="text;html=1;strokeColor=none;fillColor=none;align=left;verticalAlign=middle;whiteSpace=wrap;rounded=0;fontStyle=0;fontSize=10;" vertex="1" parent="1">
          <mxGeometry x="1070" y="1140" width="135" height="10" as="geometry" />
        </mxCell>
        <mxCell id="w-rCVOtRvk_F5D2muNZO-253" value="- country String" style="text;html=1;strokeColor=none;fillColor=none;align=left;verticalAlign=middle;whiteSpace=wrap;rounded=0;fontStyle=0;fontSize=10;" vertex="1" parent="1">
          <mxGeometry x="1070" y="1150" width="135" height="10" as="geometry" />
        </mxCell>
        <mxCell id="w-rCVOtRvk_F5D2muNZO-254" value="- menuType String" style="text;html=1;strokeColor=none;fillColor=none;align=left;verticalAlign=middle;whiteSpace=wrap;rounded=0;fontStyle=0;fontSize=10;" vertex="1" parent="1">
          <mxGeometry x="1070" y="1160" width="135" height="10" as="geometry" />
        </mxCell>
        <mxCell id="w-rCVOtRvk_F5D2muNZO-255" value="- iaName String" style="text;html=1;strokeColor=none;fillColor=none;align=left;verticalAlign=middle;whiteSpace=wrap;rounded=0;fontStyle=0;fontSize=10;" vertex="1" parent="1">
          <mxGeometry x="1290" y="1140" width="135" height="10" as="geometry" />
        </mxCell>
        <mxCell id="w-rCVOtRvk_F5D2muNZO-256" value="- type String" style="text;html=1;strokeColor=none;fillColor=none;align=left;verticalAlign=middle;whiteSpace=wrap;rounded=0;fontStyle=0;fontSize=10;" vertex="1" parent="1">
          <mxGeometry x="1290" y="1150" width="135" height="10" as="geometry" />
        </mxCell>
        <mxCell id="w-rCVOtRvk_F5D2muNZO-257" value="- life int" style="text;html=1;strokeColor=none;fillColor=none;align=left;verticalAlign=middle;whiteSpace=wrap;rounded=0;fontStyle=0;fontSize=10;" vertex="1" parent="1">
          <mxGeometry x="1290" y="1160" width="135" height="10" as="geometry" />
        </mxCell>
        <mxCell id="w-rCVOtRvk_F5D2muNZO-258" value="- teamName String" style="text;html=1;strokeColor=none;fillColor=none;align=left;verticalAlign=middle;whiteSpace=wrap;rounded=0;fontStyle=0;fontSize=10;" vertex="1" parent="1">
          <mxGeometry x="1490" y="1145" width="135" height="10" as="geometry" />
        </mxCell>
        <mxCell id="w-rCVOtRvk_F5D2muNZO-259" value="- teamValue int" style="text;html=1;strokeColor=none;fillColor=none;align=left;verticalAlign=middle;whiteSpace=wrap;rounded=0;fontStyle=0;fontSize=10;" vertex="1" parent="1">
          <mxGeometry x="1490" y="1155" width="135" height="10" as="geometry" />
        </mxCell>
        <mxCell id="w-rCVOtRvk_F5D2muNZO-260" value="- teamPoints int" style="text;html=1;strokeColor=none;fillColor=none;align=left;verticalAlign=middle;whiteSpace=wrap;rounded=0;fontStyle=0;fontSize=10;" vertex="1" parent="1">
          <mxGeometry x="1490" y="1165" width="135" height="10" as="geometry" />
        </mxCell>
        <mxCell id="w-rCVOtRvk_F5D2muNZO-261" value="- iaBattles List&amp;lt;String&amp;gt;" style="text;html=1;strokeColor=none;fillColor=none;align=left;verticalAlign=middle;whiteSpace=wrap;rounded=0;fontStyle=0;fontSize=10;" vertex="1" parent="1">
          <mxGeometry x="1490" y="1175" width="135" height="10" as="geometry" />
        </mxCell>
        <mxCell id="w-rCVOtRvk_F5D2muNZO-262" value="- battleRegister List&amp;lt;String&amp;gt;" style="text;html=1;strokeColor=none;fillColor=none;align=left;verticalAlign=middle;whiteSpace=wrap;rounded=0;fontStyle=0;fontSize=10;" vertex="1" parent="1">
          <mxGeometry x="1490" y="1185" width="135" height="10" as="geometry" />
        </mxCell>
        <mxCell id="w-rCVOtRvk_F5D2muNZO-264" value="- soldiersTeam List&amp;lt;String&amp;gt;" style="text;html=1;strokeColor=none;fillColor=none;align=left;verticalAlign=middle;whiteSpace=wrap;rounded=0;fontStyle=0;fontSize=10;" vertex="1" parent="1">
          <mxGeometry x="1490" y="1135" width="135" height="10" as="geometry" />
        </mxCell>
        <mxCell id="w-rCVOtRvk_F5D2muNZO-269" value="- programmersTeam List&amp;lt;Programmers&amp;gt;" style="text;html=1;strokeColor=none;fillColor=none;align=left;verticalAlign=middle;whiteSpace=wrap;rounded=0;fontStyle=0;fontSize=10;" vertex="1" parent="1">
          <mxGeometry x="1490" y="1125" width="190" height="10" as="geometry" />
        </mxCell>
        <mxCell id="w-rCVOtRvk_F5D2muNZO-271" value="&lt;span style=&quot;font-weight: normal;&quot;&gt;+ insertBattleRegister() boolean&lt;br&gt;&lt;/span&gt;" style="text;html=1;strokeColor=none;fillColor=none;align=left;verticalAlign=middle;whiteSpace=wrap;rounded=0;fontStyle=1;fontSize=10;" vertex="1" parent="1">
          <mxGeometry x="1490" y="1240" width="150" height="10" as="geometry" />
        </mxCell>
        <mxCell id="w-rCVOtRvk_F5D2muNZO-272" value="&lt;span style=&quot;font-weight: normal;&quot;&gt;+ insertIaBattle() boolean&lt;br&gt;&lt;/span&gt;" style="text;html=1;strokeColor=none;fillColor=none;align=left;verticalAlign=middle;whiteSpace=wrap;rounded=0;fontStyle=1;fontSize=10;" vertex="1" parent="1">
          <mxGeometry x="1490" y="1250" width="150" height="10" as="geometry" />
        </mxCell>
        <mxCell id="w-rCVOtRvk_F5D2muNZO-273" value="&lt;span style=&quot;font-weight: normal;&quot;&gt;+ insertProgrammer() boolean&lt;br&gt;&lt;/span&gt;" style="text;html=1;strokeColor=none;fillColor=none;align=left;verticalAlign=middle;whiteSpace=wrap;rounded=0;fontStyle=1;fontSize=10;" vertex="1" parent="1">
          <mxGeometry x="1490" y="1260" width="150" height="10" as="geometry" />
        </mxCell>
        <mxCell id="w-rCVOtRvk_F5D2muNZO-274" value="&lt;span style=&quot;font-weight: normal;&quot;&gt;+ insertSoldier() boolean&lt;br&gt;&lt;/span&gt;" style="text;html=1;strokeColor=none;fillColor=none;align=left;verticalAlign=middle;whiteSpace=wrap;rounded=0;fontStyle=1;fontSize=10;" vertex="1" parent="1">
          <mxGeometry x="1490" y="1270" width="150" height="10" as="geometry" />
        </mxCell>
        <mxCell id="w-rCVOtRvk_F5D2muNZO-278" value="" style="endArrow=none;html=1;rounded=0;entryX=0.999;entryY=0.125;entryDx=0;entryDy=0;entryPerimeter=0;exitX=0.001;exitY=0.207;exitDx=0;exitDy=0;exitPerimeter=0;" edge="1" parent="1" target="w-rCVOtRvk_F5D2muNZO-141">
          <mxGeometry width="50" height="50" relative="1" as="geometry">
            <mxPoint x="1490.48" y="1115.3999999999999" as="sourcePoint" />
            <mxPoint x="1650" y="1114.9999999999998" as="targetPoint" />
          </mxGeometry>
        </mxCell>
        <mxCell id="w-rCVOtRvk_F5D2muNZO-279" value="*" style="text;html=1;strokeColor=none;fillColor=none;align=center;verticalAlign=middle;whiteSpace=wrap;rounded=0;fontSize=9;" vertex="1" parent="1">
          <mxGeometry x="1750" y="1290" width="10" height="10" as="geometry" />
        </mxCell>
        <mxCell id="w-rCVOtRvk_F5D2muNZO-281" value="*" style="text;html=1;strokeColor=none;fillColor=none;align=center;verticalAlign=middle;whiteSpace=wrap;rounded=0;fontSize=9;" vertex="1" parent="1">
          <mxGeometry x="980" y="1290" width="10" height="10" as="geometry" />
        </mxCell>
        <mxCell id="w-rCVOtRvk_F5D2muNZO-282" value="- identification int" style="text;html=1;strokeColor=none;fillColor=none;align=left;verticalAlign=middle;whiteSpace=wrap;rounded=0;fontStyle=0;fontSize=10;" vertex="1" parent="1">
          <mxGeometry x="1720" y="1130" width="135" height="10" as="geometry" />
        </mxCell>
        <mxCell id="w-rCVOtRvk_F5D2muNZO-283" value="- name String" style="text;html=1;strokeColor=none;fillColor=none;align=left;verticalAlign=middle;whiteSpace=wrap;rounded=0;fontStyle=0;fontSize=10;" vertex="1" parent="1">
          <mxGeometry x="1720" y="1140" width="135" height="10" as="geometry" />
        </mxCell>
        <mxCell id="w-rCVOtRvk_F5D2muNZO-284" value="- lastName String" style="text;html=1;strokeColor=none;fillColor=none;align=left;verticalAlign=middle;whiteSpace=wrap;rounded=0;fontStyle=0;fontSize=10;" vertex="1" parent="1">
          <mxGeometry x="1720" y="1150" width="135" height="10" as="geometry" />
        </mxCell>
        <mxCell id="w-rCVOtRvk_F5D2muNZO-285" value="- speciality String" style="text;html=1;strokeColor=none;fillColor=none;align=left;verticalAlign=middle;whiteSpace=wrap;rounded=0;fontStyle=0;fontSize=10;" vertex="1" parent="1">
          <mxGeometry x="1720" y="1160" width="135" height="10" as="geometry" />
        </mxCell>
        <mxCell id="w-rCVOtRvk_F5D2muNZO-286" value="- worth int" style="text;html=1;strokeColor=none;fillColor=none;align=left;verticalAlign=middle;whiteSpace=wrap;rounded=0;fontStyle=0;fontSize=10;" vertex="1" parent="1">
          <mxGeometry x="1720" y="1170" width="135" height="10" as="geometry" />
        </mxCell>
        <mxCell id="w-rCVOtRvk_F5D2muNZO-287" value="&lt;span style=&quot;font-weight: normal;&quot;&gt;+ fillSoldiers()&lt;br&gt;&lt;/span&gt;" style="text;html=1;strokeColor=none;fillColor=none;align=left;verticalAlign=middle;whiteSpace=wrap;rounded=0;fontStyle=1;fontSize=10;" vertex="1" parent="1">
          <mxGeometry x="1275" y="720" width="75" height="10" as="geometry" />
        </mxCell>
        <mxCell id="w-rCVOtRvk_F5D2muNZO-288" value="" style="line;strokeWidth=2;html=1;" vertex="1" parent="1">
          <mxGeometry x="740" y="1445" width="120" height="10" as="geometry" />
        </mxCell>
        <mxCell id="w-rCVOtRvk_F5D2muNZO-289" value="" style="line;strokeWidth=2;html=1;" vertex="1" parent="1">
          <mxGeometry x="880" y="1445" width="120" height="10" as="geometry" />
        </mxCell>
        <mxCell id="w-rCVOtRvk_F5D2muNZO-290" value="" style="line;strokeWidth=2;html=1;" vertex="1" parent="1">
          <mxGeometry x="1020" y="1445" width="120" height="10" as="geometry" />
        </mxCell>
        <mxCell id="w-rCVOtRvk_F5D2muNZO-291" value="" style="line;strokeWidth=2;html=1;" vertex="1" parent="1">
          <mxGeometry x="1530" y="1445" width="120" height="10" as="geometry" />
        </mxCell>
        <mxCell id="w-rCVOtRvk_F5D2muNZO-292" value="" style="line;strokeWidth=2;html=1;" vertex="1" parent="1">
          <mxGeometry x="1670" y="1445" width="120" height="10" as="geometry" />
        </mxCell>
        <mxCell id="w-rCVOtRvk_F5D2muNZO-293" value="" style="line;strokeWidth=2;html=1;" vertex="1" parent="1">
          <mxGeometry x="1810" y="1445" width="120" height="10" as="geometry" />
        </mxCell>
        <mxCell id="w-rCVOtRvk_F5D2muNZO-294" value="" style="line;strokeWidth=2;html=1;" vertex="1" parent="1">
          <mxGeometry x="1950" y="1445" width="120" height="10" as="geometry" />
        </mxCell>
        <mxCell id="w-rCVOtRvk_F5D2muNZO-295" value="" style="line;strokeWidth=2;html=1;" vertex="1" parent="1">
          <mxGeometry x="2095" y="1445" width="120" height="10" as="geometry" />
        </mxCell>
        <mxCell id="w-rCVOtRvk_F5D2muNZO-296" value="- aiAlgorithms String" style="text;html=1;strokeColor=none;fillColor=none;align=left;verticalAlign=middle;whiteSpace=wrap;rounded=0;fontStyle=0;fontSize=10;" vertex="1" parent="1">
          <mxGeometry x="740" y="1410" width="120" height="10" as="geometry" />
        </mxCell>
        <mxCell id="w-rCVOtRvk_F5D2muNZO-298" value="- implemented int" style="text;html=1;strokeColor=none;fillColor=none;align=left;verticalAlign=middle;whiteSpace=wrap;rounded=0;fontStyle=0;fontSize=10;" vertex="1" parent="1">
          <mxGeometry x="740" y="1420" width="120" height="10" as="geometry" />
        </mxCell>
        <mxCell id="w-rCVOtRvk_F5D2muNZO-299" value="&lt;span style=&quot;font-weight: normal;&quot;&gt;+ Gets and Sets(...)&lt;br&gt;&lt;/span&gt;" style="text;html=1;strokeColor=none;fillColor=none;align=left;verticalAlign=middle;whiteSpace=wrap;rounded=0;fontStyle=1;fontSize=10;" vertex="1" parent="1">
          <mxGeometry x="740" y="1480" width="150" height="10" as="geometry" />
        </mxCell>
        <mxCell id="w-rCVOtRvk_F5D2muNZO-300" value="&lt;span style=&quot;font-weight: normal;&quot;&gt;+ toString(...) String&lt;br&gt;&lt;/span&gt;" style="text;html=1;strokeColor=none;fillColor=none;align=left;verticalAlign=middle;whiteSpace=wrap;rounded=0;fontStyle=1;fontSize=10;" vertex="1" parent="1">
          <mxGeometry x="740" y="1490" width="110" height="10" as="geometry" />
        </mxCell>
        <mxCell id="w-rCVOtRvk_F5D2muNZO-301" value="&lt;span style=&quot;font-weight: normal;&quot;&gt;+ Gets and Sets(...)&lt;br&gt;&lt;/span&gt;" style="text;html=1;strokeColor=none;fillColor=none;align=left;verticalAlign=middle;whiteSpace=wrap;rounded=0;fontStyle=1;fontSize=10;" vertex="1" parent="1">
          <mxGeometry x="880" y="1480" width="100" height="10" as="geometry" />
        </mxCell>
        <mxCell id="w-rCVOtRvk_F5D2muNZO-302" value="&lt;span style=&quot;font-weight: normal;&quot;&gt;+ Gets and Sets(...)&lt;br&gt;&lt;/span&gt;" style="text;html=1;strokeColor=none;fillColor=none;align=left;verticalAlign=middle;whiteSpace=wrap;rounded=0;fontStyle=1;fontSize=10;" vertex="1" parent="1">
          <mxGeometry x="1020" y="1480" width="120" height="10" as="geometry" />
        </mxCell>
        <mxCell id="w-rCVOtRvk_F5D2muNZO-303" value="&lt;span style=&quot;font-weight: normal;&quot;&gt;+ toString(...) String&lt;br&gt;&lt;/span&gt;" style="text;html=1;strokeColor=none;fillColor=none;align=left;verticalAlign=middle;whiteSpace=wrap;rounded=0;fontStyle=1;fontSize=10;" vertex="1" parent="1">
          <mxGeometry x="880" y="1490" width="110" height="10" as="geometry" />
        </mxCell>
        <mxCell id="w-rCVOtRvk_F5D2muNZO-304" value="&lt;span style=&quot;font-weight: normal;&quot;&gt;+ toString(...) String&lt;br&gt;&lt;/span&gt;" style="text;html=1;strokeColor=none;fillColor=none;align=left;verticalAlign=middle;whiteSpace=wrap;rounded=0;fontStyle=1;fontSize=10;" vertex="1" parent="1">
          <mxGeometry x="1020" y="1490" width="110" height="10" as="geometry" />
        </mxCell>
        <mxCell id="w-rCVOtRvk_F5D2muNZO-305" value="&lt;span style=&quot;font-weight: normal;&quot;&gt;+ AiEngineer(...)&lt;br&gt;&lt;/span&gt;" style="text;html=1;strokeColor=none;fillColor=none;align=left;verticalAlign=middle;whiteSpace=wrap;rounded=0;fontStyle=1;fontSize=10;" vertex="1" parent="1">
          <mxGeometry x="740" y="1470" width="100" height="10" as="geometry" />
        </mxCell>
        <mxCell id="w-rCVOtRvk_F5D2muNZO-307" value="&lt;span style=&quot;font-weight: normal;&quot;&gt;+ CryptographyExpert(...)&lt;br&gt;&lt;/span&gt;" style="text;html=1;strokeColor=none;fillColor=none;align=left;verticalAlign=middle;whiteSpace=wrap;rounded=0;fontStyle=1;fontSize=10;" vertex="1" parent="1">
          <mxGeometry x="880" y="1470" width="120" height="10" as="geometry" />
        </mxCell>
        <mxCell id="w-rCVOtRvk_F5D2muNZO-308" value="&lt;span style=&quot;font-weight: normal;&quot;&gt;+ ThreatAnalyst(...)&lt;br&gt;&lt;/span&gt;" style="text;html=1;strokeColor=none;fillColor=none;align=left;verticalAlign=middle;whiteSpace=wrap;rounded=0;fontStyle=1;fontSize=10;" vertex="1" parent="1">
          <mxGeometry x="1020" y="1470" width="100" height="10" as="geometry" />
        </mxCell>
        <mxCell id="w-rCVOtRvk_F5D2muNZO-309" value="- knowledge String" style="text;html=1;strokeColor=none;fillColor=none;align=left;verticalAlign=middle;whiteSpace=wrap;rounded=0;fontStyle=0;fontSize=10;" vertex="1" parent="1">
          <mxGeometry x="880" y="1400" width="120" height="10" as="geometry" />
        </mxCell>
        <mxCell id="w-rCVOtRvk_F5D2muNZO-310" value="- dataSecurity String" style="text;html=1;strokeColor=none;fillColor=none;align=left;verticalAlign=middle;whiteSpace=wrap;rounded=0;fontStyle=0;fontSize=10;" vertex="1" parent="1">
          <mxGeometry x="880" y="1410" width="120" height="10" as="geometry" />
        </mxCell>
        <mxCell id="w-rCVOtRvk_F5D2muNZO-311" value="- numberSuccessful int" style="text;html=1;strokeColor=none;fillColor=none;align=left;verticalAlign=middle;whiteSpace=wrap;rounded=0;fontStyle=0;fontSize=10;" vertex="1" parent="1">
          <mxGeometry x="880" y="1420" width="120" height="10" as="geometry" />
        </mxCell>
        <mxCell id="w-rCVOtRvk_F5D2muNZO-313" value="- obfuscationSkill String" style="text;html=1;strokeColor=none;fillColor=none;align=left;verticalAlign=middle;whiteSpace=wrap;rounded=0;fontStyle=0;fontSize=10;" vertex="1" parent="1">
          <mxGeometry x="880" y="1430" width="120" height="10" as="geometry" />
        </mxCell>
        <mxCell id="w-rCVOtRvk_F5D2muNZO-315" value="- abilityIdentify String" style="text;html=1;strokeColor=none;fillColor=none;align=left;verticalAlign=middle;whiteSpace=wrap;rounded=0;fontStyle=0;fontSize=10;" vertex="1" parent="1">
          <mxGeometry x="1020" y="1410" width="120" height="10" as="geometry" />
        </mxCell>
        <mxCell id="w-rCVOtRvk_F5D2muNZO-316" value="- numberThreats int" style="text;html=1;strokeColor=none;fillColor=none;align=left;verticalAlign=middle;whiteSpace=wrap;rounded=0;fontStyle=0;fontSize=10;" vertex="1" parent="1">
          <mxGeometry x="1020" y="1420" width="120" height="10" as="geometry" />
        </mxCell>
        <mxCell id="w-rCVOtRvk_F5D2muNZO-317" value="&lt;span style=&quot;font-weight: normal;&quot;&gt;+ Gets and Sets(...)&lt;br&gt;&lt;/span&gt;" style="text;html=1;strokeColor=none;fillColor=none;align=left;verticalAlign=middle;whiteSpace=wrap;rounded=0;fontStyle=1;fontSize=10;" vertex="1" parent="1">
          <mxGeometry x="1530" y="1480" width="120" height="10" as="geometry" />
        </mxCell>
        <mxCell id="w-rCVOtRvk_F5D2muNZO-318" value="&lt;span style=&quot;font-weight: normal;&quot;&gt;+ Gets and Sets(...)&lt;br&gt;&lt;/span&gt;" style="text;html=1;strokeColor=none;fillColor=none;align=left;verticalAlign=middle;whiteSpace=wrap;rounded=0;fontStyle=1;fontSize=10;" vertex="1" parent="1">
          <mxGeometry x="1670" y="1480" width="120" height="10" as="geometry" />
        </mxCell>
        <mxCell id="w-rCVOtRvk_F5D2muNZO-319" value="&lt;span style=&quot;font-weight: normal;&quot;&gt;+ Gets and Sets(...)&lt;br&gt;&lt;/span&gt;" style="text;html=1;strokeColor=none;fillColor=none;align=left;verticalAlign=middle;whiteSpace=wrap;rounded=0;fontStyle=1;fontSize=10;" vertex="1" parent="1">
          <mxGeometry x="1810" y="1480" width="120" height="10" as="geometry" />
        </mxCell>
        <mxCell id="w-rCVOtRvk_F5D2muNZO-320" value="&lt;span style=&quot;font-weight: normal;&quot;&gt;+ Gets and Sets(...)&lt;br&gt;&lt;/span&gt;" style="text;html=1;strokeColor=none;fillColor=none;align=left;verticalAlign=middle;whiteSpace=wrap;rounded=0;fontStyle=1;fontSize=10;" vertex="1" parent="1">
          <mxGeometry x="1950" y="1480" width="120" height="10" as="geometry" />
        </mxCell>
        <mxCell id="w-rCVOtRvk_F5D2muNZO-321" value="&lt;span style=&quot;font-weight: normal;&quot;&gt;+ Gets and Sets(...)&lt;br&gt;&lt;/span&gt;" style="text;html=1;strokeColor=none;fillColor=none;align=left;verticalAlign=middle;whiteSpace=wrap;rounded=0;fontStyle=1;fontSize=10;" vertex="1" parent="1">
          <mxGeometry x="2095" y="1480" width="120" height="10" as="geometry" />
        </mxCell>
        <mxCell id="w-rCVOtRvk_F5D2muNZO-322" value="&lt;span style=&quot;font-weight: normal;&quot;&gt;+ toString(...) String&lt;br&gt;&lt;/span&gt;" style="text;html=1;strokeColor=none;fillColor=none;align=left;verticalAlign=middle;whiteSpace=wrap;rounded=0;fontStyle=1;fontSize=10;" vertex="1" parent="1">
          <mxGeometry x="1530" y="1490" width="110" height="10" as="geometry" />
        </mxCell>
        <mxCell id="w-rCVOtRvk_F5D2muNZO-323" value="&lt;span style=&quot;font-weight: normal;&quot;&gt;+ toString(...) String&lt;br&gt;&lt;/span&gt;" style="text;html=1;strokeColor=none;fillColor=none;align=left;verticalAlign=middle;whiteSpace=wrap;rounded=0;fontStyle=1;fontSize=10;" vertex="1" parent="1">
          <mxGeometry x="1670" y="1490" width="110" height="10" as="geometry" />
        </mxCell>
        <mxCell id="w-rCVOtRvk_F5D2muNZO-324" value="&lt;span style=&quot;font-weight: normal;&quot;&gt;+ toString(...) String&lt;br&gt;&lt;/span&gt;" style="text;html=1;strokeColor=none;fillColor=none;align=left;verticalAlign=middle;whiteSpace=wrap;rounded=0;fontStyle=1;fontSize=10;" vertex="1" parent="1">
          <mxGeometry x="1810" y="1490" width="110" height="10" as="geometry" />
        </mxCell>
        <mxCell id="w-rCVOtRvk_F5D2muNZO-325" value="&lt;span style=&quot;font-weight: normal;&quot;&gt;+ toString(...) String&lt;br&gt;&lt;/span&gt;" style="text;html=1;strokeColor=none;fillColor=none;align=left;verticalAlign=middle;whiteSpace=wrap;rounded=0;fontStyle=1;fontSize=10;" vertex="1" parent="1">
          <mxGeometry x="1950" y="1490" width="110" height="10" as="geometry" />
        </mxCell>
        <mxCell id="w-rCVOtRvk_F5D2muNZO-326" value="&lt;span style=&quot;font-weight: normal;&quot;&gt;+ toString(...) String&lt;br&gt;&lt;/span&gt;" style="text;html=1;strokeColor=none;fillColor=none;align=left;verticalAlign=middle;whiteSpace=wrap;rounded=0;fontStyle=1;fontSize=10;" vertex="1" parent="1">
          <mxGeometry x="2095" y="1490" width="110" height="10" as="geometry" />
        </mxCell>
        <mxCell id="w-rCVOtRvk_F5D2muNZO-327" value="&lt;span style=&quot;font-weight: normal;&quot;&gt;+ ArtillerySoldier(...)&lt;br&gt;&lt;/span&gt;" style="text;html=1;strokeColor=none;fillColor=none;align=left;verticalAlign=middle;whiteSpace=wrap;rounded=0;fontStyle=1;fontSize=10;" vertex="1" parent="1">
          <mxGeometry x="1530" y="1470" width="100" height="10" as="geometry" />
        </mxCell>
        <mxCell id="w-rCVOtRvk_F5D2muNZO-328" value="&lt;span style=&quot;font-weight: normal;&quot;&gt;+ CombatIntelligence(...)&lt;br&gt;&lt;/span&gt;" style="text;html=1;strokeColor=none;fillColor=none;align=left;verticalAlign=middle;whiteSpace=wrap;rounded=0;fontStyle=1;fontSize=10;" vertex="1" parent="1">
          <mxGeometry x="1670" y="1470" width="120" height="10" as="geometry" />
        </mxCell>
        <mxCell id="w-rCVOtRvk_F5D2muNZO-329" value="&lt;span style=&quot;font-weight: normal;&quot;&gt;+ InfantrySoldier(...)&lt;br&gt;&lt;/span&gt;" style="text;html=1;strokeColor=none;fillColor=none;align=left;verticalAlign=middle;whiteSpace=wrap;rounded=0;fontStyle=1;fontSize=10;" vertex="1" parent="1">
          <mxGeometry x="1810" y="1470" width="120" height="10" as="geometry" />
        </mxCell>
        <mxCell id="w-rCVOtRvk_F5D2muNZO-330" value="&lt;span style=&quot;font-weight: normal;&quot;&gt;+ LogisticSupport(...)&lt;br&gt;&lt;/span&gt;" style="text;html=1;strokeColor=none;fillColor=none;align=left;verticalAlign=middle;whiteSpace=wrap;rounded=0;fontStyle=1;fontSize=10;" vertex="1" parent="1">
          <mxGeometry x="1950" y="1470" width="120" height="10" as="geometry" />
        </mxCell>
        <mxCell id="w-rCVOtRvk_F5D2muNZO-331" value="&lt;span style=&quot;font-weight: normal;&quot;&gt;+ SpecialOpsSoldiers(...)&lt;br&gt;&lt;/span&gt;" style="text;html=1;strokeColor=none;fillColor=none;align=left;verticalAlign=middle;whiteSpace=wrap;rounded=0;fontStyle=1;fontSize=10;" vertex="1" parent="1">
          <mxGeometry x="2095" y="1470" width="120" height="10" as="geometry" />
        </mxCell>
        <mxCell id="w-rCVOtRvk_F5D2muNZO-332" value="- targetsDestroyed int" style="text;html=1;strokeColor=none;fillColor=none;align=left;verticalAlign=middle;whiteSpace=wrap;rounded=0;fontStyle=0;fontSize=10;" vertex="1" parent="1">
          <mxGeometry x="1530" y="1410" width="120" height="10" as="geometry" />
        </mxCell>
        <mxCell id="w-rCVOtRvk_F5D2muNZO-333" value="- precision int" style="text;html=1;strokeColor=none;fillColor=none;align=left;verticalAlign=middle;whiteSpace=wrap;rounded=0;fontStyle=0;fontSize=10;" vertex="1" parent="1">
          <mxGeometry x="1530" y="1420" width="120" height="10" as="geometry" />
        </mxCell>
        <mxCell id="w-rCVOtRvk_F5D2muNZO-334" value="- compiledIntelligence int" style="text;html=1;strokeColor=none;fillColor=none;align=left;verticalAlign=middle;whiteSpace=wrap;rounded=0;fontStyle=0;fontSize=10;" vertex="1" parent="1">
          <mxGeometry x="1670" y="1410" width="120" height="10" as="geometry" />
        </mxCell>
        <mxCell id="w-rCVOtRvk_F5D2muNZO-335" value="- identifiedEnemies int" style="text;html=1;strokeColor=none;fillColor=none;align=left;verticalAlign=middle;whiteSpace=wrap;rounded=0;fontStyle=0;fontSize=10;" vertex="1" parent="1">
          <mxGeometry x="1670" y="1420" width="120" height="10" as="geometry" />
        </mxCell>
        <mxCell id="w-rCVOtRvk_F5D2muNZO-336" value="- missionsCompleted int" style="text;html=1;strokeColor=none;fillColor=none;align=left;verticalAlign=middle;whiteSpace=wrap;rounded=0;fontStyle=0;fontSize=10;" vertex="1" parent="1">
          <mxGeometry x="1810" y="1410" width="120" height="10" as="geometry" />
        </mxCell>
        <mxCell id="w-rCVOtRvk_F5D2muNZO-338" value="- gun String" style="text;html=1;strokeColor=none;fillColor=none;align=left;verticalAlign=middle;whiteSpace=wrap;rounded=0;fontStyle=0;fontSize=10;" vertex="1" parent="1">
          <mxGeometry x="1810" y="1420" width="120" height="10" as="geometry" />
        </mxCell>
        <mxCell id="w-rCVOtRvk_F5D2muNZO-339" value="- distributedSupplies int" style="text;html=1;strokeColor=none;fillColor=none;align=left;verticalAlign=middle;whiteSpace=wrap;rounded=0;fontStyle=0;fontSize=10;" vertex="1" parent="1">
          <mxGeometry x="1950" y="1410" width="120" height="10" as="geometry" />
        </mxCell>
        <mxCell id="w-rCVOtRvk_F5D2muNZO-340" value="- troopsAttended int" style="text;html=1;strokeColor=none;fillColor=none;align=left;verticalAlign=middle;whiteSpace=wrap;rounded=0;fontStyle=0;fontSize=10;" vertex="1" parent="1">
          <mxGeometry x="1950" y="1420" width="120" height="10" as="geometry" />
        </mxCell>
        <mxCell id="w-rCVOtRvk_F5D2muNZO-341" value="- successfulCovert int" style="text;html=1;strokeColor=none;fillColor=none;align=left;verticalAlign=middle;whiteSpace=wrap;rounded=0;fontStyle=0;fontSize=10;" vertex="1" parent="1">
          <mxGeometry x="2095" y="1400" width="120" height="10" as="geometry" />
        </mxCell>
        <mxCell id="w-rCVOtRvk_F5D2muNZO-342" value="- totalMissions int" style="text;html=1;strokeColor=none;fillColor=none;align=left;verticalAlign=middle;whiteSpace=wrap;rounded=0;fontStyle=0;fontSize=10;" vertex="1" parent="1">
          <mxGeometry x="2095" y="1410" width="120" height="10" as="geometry" />
        </mxCell>
        <mxCell id="w-rCVOtRvk_F5D2muNZO-343" value="- resourcesObtained int" style="text;html=1;strokeColor=none;fillColor=none;align=left;verticalAlign=middle;whiteSpace=wrap;rounded=0;fontStyle=0;fontSize=10;" vertex="1" parent="1">
          <mxGeometry x="2095" y="1420" width="120" height="10" as="geometry" />
        </mxCell>
        <mxCell id="w-rCVOtRvk_F5D2muNZO-345" value="+ showSoldierGallery()" style="text;html=1;strokeColor=none;fillColor=none;align=left;verticalAlign=middle;whiteSpace=wrap;rounded=0;fontStyle=0;fontSize=12;" vertex="1" parent="1">
          <mxGeometry x="1090" y="410" width="275" height="10" as="geometry" />
        </mxCell>
        <mxCell id="w-rCVOtRvk_F5D2muNZO-346" value="+ showProgrammerGallery()" style="text;html=1;strokeColor=none;fillColor=none;align=left;verticalAlign=middle;whiteSpace=wrap;rounded=0;fontStyle=0;fontSize=12;" vertex="1" parent="1">
          <mxGeometry x="1090" y="420" width="275" height="10" as="geometry" />
        </mxCell>
        <mxCell id="w-rCVOtRvk_F5D2muNZO-347" value="+ battleRegister()" style="text;html=1;strokeColor=none;fillColor=none;align=left;verticalAlign=middle;whiteSpace=wrap;rounded=0;fontStyle=0;fontSize=12;" vertex="1" parent="1">
          <mxGeometry x="1090" y="430" width="275" height="10" as="geometry" />
        </mxCell>
        <mxCell id="w-rCVOtRvk_F5D2muNZO-348" value="+ modifyUser()" style="text;html=1;strokeColor=none;fillColor=none;align=left;verticalAlign=middle;whiteSpace=wrap;rounded=0;fontStyle=0;fontSize=12;" vertex="1" parent="1">
          <mxGeometry x="1090" y="440" width="275" height="10" as="geometry" />
        </mxCell>
        <mxCell id="w-rCVOtRvk_F5D2muNZO-349" value="+ showRanked()" style="text;html=1;strokeColor=none;fillColor=none;align=left;verticalAlign=middle;whiteSpace=wrap;rounded=0;fontStyle=0;fontSize=12;" vertex="1" parent="1">
          <mxGeometry x="1090" y="450" width="275" height="10" as="geometry" />
        </mxCell>
        <mxCell id="w-rCVOtRvk_F5D2muNZO-350" value="+ battleWithIa()" style="text;html=1;strokeColor=none;fillColor=none;align=left;verticalAlign=middle;whiteSpace=wrap;rounded=0;fontStyle=0;fontSize=12;" vertex="1" parent="1">
          <mxGeometry x="1090" y="460" width="275" height="10" as="geometry" />
        </mxCell>
        <mxCell id="w-rCVOtRvk_F5D2muNZO-351" value="+ showData()" style="text;html=1;strokeColor=none;fillColor=none;align=left;verticalAlign=middle;whiteSpace=wrap;rounded=0;fontStyle=0;fontSize=12;" vertex="1" parent="1">
          <mxGeometry x="1090" y="470" width="275" height="10" as="geometry" />
        </mxCell>
        <mxCell id="w-rCVOtRvk_F5D2muNZO-352" value="+ modifyData()" style="text;html=1;strokeColor=none;fillColor=none;align=left;verticalAlign=middle;whiteSpace=wrap;rounded=0;fontStyle=0;fontSize=12;" vertex="1" parent="1">
          <mxGeometry x="1090" y="480" width="275" height="10" as="geometry" />
        </mxCell>
        <mxCell id="w-rCVOtRvk_F5D2muNZO-353" value="+ showStadistics()" style="text;html=1;strokeColor=none;fillColor=none;align=left;verticalAlign=middle;whiteSpace=wrap;rounded=0;fontStyle=0;fontSize=12;" vertex="1" parent="1">
          <mxGeometry x="1090" y="490" width="275" height="10" as="geometry" />
        </mxCell>
      </root>
    </mxGraphModel>
  </diagram>
</mxfile>
